<?xml version="1.0" standalone="no"?>
<!DOCTYPE svg PUBLIC "-//W3C//DTD SVG 1.1//EN" "http://www.w3.org/Graphics/SVG/1.1/DTD/svg11.dtd" >
<svg>
<metadata>
Created by FontForge 20110222 at Thu Nov 21 14:10:01 2013
 By deploy user
Copyright (c) 1988, 1990, 1993, 2003 Linotype Library GmbH, www.linotype.com. All rights reserved. Copyright (c) 1988, 1990, 1993 Adobe Systems Incorporated. All Rights Reserved.
</metadata>
<defs>
<font id="HelveticaNeueLTPro-HvCn" horiz-adv-x="260" >
  <font-face 
    font-family="HelveticaNeueLT Pro 67 MdCn"
    font-weight="750"
    font-stretch="normal"
    units-per-em="1000"
    panose-1="2 11 8 6 4 7 2 4 2 4"
    ascent="714"
    descent="-286"
    x-height="541"
    cap-height="714"
    bbox="-166 -224 1100 967"
    underline-thickness="50"
    underline-position="-50"
    unicode-range="U+000D-FB02"
  />
<missing-glyph horiz-adv-x="512" 
d="M222 117h56v67h-56v-67zM225 234h46q0 52 6 72q6 19 43 52q37 34 50 60t13 60q0 59 -35 95t-89 36q-56 0 -92 -34t-43 -103l50 -8q11 95 82 95q31 0 53.5 -24.5t22.5 -60.5q0 -20 -9.5 -37t-40.5 -46q-31 -31 -46 -59q-13 -25 -13 -81zM462 50h-412v617h412v-617z
M512 718h-512v-718h512v718z" />
    <glyph glyph-name="IJ" unicode="IJ" horiz-adv-x="768" 
d="M55 0v714h168v-714h-168zM548 215v499h168v-499q0 -229 -219 -229q-213 0 -213 197v44h156v-31q0 -23 1 -36.5t6 -30t17 -24t31 -7.5q33 0 43 29t10 88z" />
    <glyph glyph-name="ij" unicode="ij" horiz-adv-x="518" 
d="M49 598v124h162v-124h-162zM49 0v541h162v-541h-162zM307 598v124h162v-124h-162zM307 6v535h162v-554q0 -89 -33 -126t-132 -37q-15 0 -69 2v111q5 -1 13 -1h10q33 2 41 16t8 54z" />
    <glyph glyph-name="napostrophe" unicode="&#x22;n" horiz-adv-x="547" 
d="M73 0v541h156v-64h2q17 36 51.5 57t78.5 21q141 0 141 -150v-405h-162v369q0 62 -47 62q-25 0 -41.5 -19.5t-16.5 -57.5v-354h-162zM16 714v104h134v-76q-3 -54 -31 -75t-86 -23v40q25 4 33.5 10.5t10.5 19.5h-61z" />
    <glyph glyph-name="fi" unicode="fi" horiz-adv-x="556" 
d="M345 598v124h162v-124h-162zM345 0v541h162v-541h-162zM66 0v429h-67v112h67v45q0 78 34.5 110t130.5 32q51 0 72 -3v-109h-23q-32 0 -42 -8.5t-10 -32.5v-34h75v-112h-75v-429h-162z" />
    <glyph glyph-name="fl" unicode="fl" horiz-adv-x="556" 
d="M66 0v429h-67v112h67v45q0 78 34.5 110t130.5 32q51 0 72 -3v-109h-23q-32 0 -42 -8.5t-10 -32.5v-34h75v-112h-75v-429h-162zM345 0v714h162v-714h-162z" />
    <glyph glyph-name=".notdef" horiz-adv-x="512" 
d="M222 117h56v67h-56v-67zM225 234h46q0 52 6 72q6 19 43 52q37 34 50 60t13 60q0 59 -35 95t-89 36q-56 0 -92 -34t-43 -103l50 -8q11 95 82 95q31 0 53.5 -24.5t22.5 -60.5q0 -20 -9.5 -37t-40.5 -46q-31 -31 -46 -59q-13 -25 -13 -81zM462 50h-412v617h412v-617z
M512 718h-512v-718h512v718z" />
    <glyph glyph-name=".null" horiz-adv-x="500" 
 />
    <glyph glyph-name=".null" horiz-adv-x="500" 
 />
    <glyph glyph-name="nonmarkingreturn" horiz-adv-x="333" 
 />
    <glyph glyph-name="CR" unicode="&#xd;" horiz-adv-x="0" 
 />
    <glyph glyph-name="space" unicode=" " 
 />
    <glyph glyph-name="exclam" unicode="!" horiz-adv-x="334" 
d="M90 0v150h156v-150h-156zM86 480v234h162v-234l-18 -276h-124z" />
    <glyph glyph-name="quotedbl" unicode="&#x22;" horiz-adv-x="481" 
d="M72 365v349h130v-349h-130zM279 365v349h130v-349h-130z" />
    <glyph glyph-name="numbersign" unicode="#" horiz-adv-x="520" 
d="M287 283l18 128h-72l-18 -128h72zM66 0l23 171h-73v112h89l18 128h-73v112h89l23 171h111l-24 -171h72l24 171h110l-24 -171h73v-112h-89l-18 -128h73v-112h-89l-23 -171h-110l23 171h-72l-23 -171h-110z" />
    <glyph glyph-name="dollar" unicode="$" horiz-adv-x="520" 
d="M217 -102v88q-87 4 -141.5 46.5t-54.5 133.5v46h162v-23q0 -91 72 -91q40 0 58 23t18 56q0 30 -17 51t-44 34t-59.5 24.5t-65.5 27t-60 37.5t-44 61t-17 92q0 85 46.5 140t146.5 64v74h78v-74q100 -8 145.5 -58.5t45.5 -130.5v-17h-162q0 51 -14 71q-14 23 -51 23
q-67 0 -67 -71q0 -40 31.5 -65t77 -41t90.5 -36t76.5 -64t31.5 -112q0 -107 -52 -159.5t-152 -61.5v-88h-78z" />
    <glyph glyph-name="percent" unicode="%" horiz-adv-x="778" 
d="M443 178q0 95 34 143.5t124 48.5q52 0 85 -14t48 -43t20 -59t5 -76t-5 -76t-20 -59t-48 -43t-84 -14q-52 0 -85.5 14t-48.5 43t-20 59t-5 76zM19 516q0 95 34 143.5t124 48.5q52 0 85 -14t48 -43t20 -59t5 -76t-5 -76t-20 -59t-48 -43t-84 -14q-52 0 -85.5 14t-48.5 43
t-20 59t-5 76zM561 178q0 -59 8.5 -84t31.5 -25q25 0 32.5 23t7.5 91q0 65 -8.5 84.5t-31.5 19.5q-45 0 -40 -109zM183 -14l314 722h101l-314 -722h-101zM137 516q0 -59 8.5 -84t31.5 -25q25 0 32.5 23t7.5 91q0 65 -8.5 84.5t-31.5 19.5q-45 0 -40 -109z" />
    <glyph glyph-name="ampersand" unicode="&#x26;" horiz-adv-x="630" 
d="M348 375l92 -125q22 32 28 95h142q-8 -137 -83 -213l98 -132h-177l-32 44q-84 -58 -177 -58q-59 0 -103 18t-68.5 48t-36 63.5t-11.5 69.5q0 72 32 114.5t106 97.5q-70 89 -70 158q0 80 55 123.5t140 43.5q83 0 136.5 -41.5t53.5 -118.5q0 -59 -31.5 -99.5t-93.5 -87.5z
M342 146l-107 146q-59 -42 -59 -94q0 -35 26.5 -61.5t63.5 -26.5q46 0 76 36zM224 573q0 -16 9 -36t16.5 -30t25.5 -33q20 17 31 28t21 30t10 40q0 25 -17 40.5t-41 15.5q-22 0 -38.5 -15t-16.5 -40z" />
    <glyph glyph-name="quotesingle" unicode="'" 
d="M65 365v349h130v-349h-130z" />
    <glyph glyph-name="parenleft" unicode="(" horiz-adv-x="315" 
d="M320 -184h-130q-141 226 -141 449t141 449h130q-50 -86 -82.5 -202.5t-32.5 -246.5t32.5 -246.5t82.5 -202.5z" />
    <glyph glyph-name="parenright" unicode=")" horiz-adv-x="315" 
d="M-5 714h130q141 -226 141 -449t-141 -449h-130q50 86 82.5 202.5t32.5 246.5t-32.5 246.5t-82.5 202.5z" />
    <glyph glyph-name="asterisk" unicode="*" horiz-adv-x="408" 
d="M8 541l29 86l124 -48l-2 135h90l-2 -135l123 48l30 -86l-126 -42l82 -106l-74 -54l-78 108l-78 -108l-73 54l81 106z" />
    <glyph glyph-name="plus" unicode="+" horiz-adv-x="600" 
d="M235 0v188h-188v130h188v188h130v-188h188v-130h-188v-188h-130z" />
    <glyph glyph-name="comma" unicode="," 
d="M52 6v174h156v-149q0 -42 -5.5 -73t-21.5 -60.5t-48 -46.5t-81 -20v78q33 0 47.5 23t14.5 74h-62z" />
    <glyph glyph-name="hyphen" unicode="-" horiz-adv-x="370" 
d="M34 221v136h302v-136h-302z" />
    <glyph glyph-name="period" unicode="." 
d="M52 0v180h156v-180h-156z" />
    <glyph glyph-name="slash" unicode="/" horiz-adv-x="352" 
d="M-6 -14l228 742h136l-228 -742h-136z" />
    <glyph glyph-name="zero" unicode="0" horiz-adv-x="520" 
d="M493 347q0 -69 -4 -116.5t-17.5 -97.5t-38.5 -79.5t-68.5 -48.5t-104.5 -19q-45 0 -79.5 8.5t-59.5 23t-42 39.5t-27 52t-15.5 67.5t-7.5 78.5t-2 92q0 69 4 116.5t17.5 97.5t38.5 79.5t68.5 48.5t104.5 19q45 0 79.5 -8.5t59.5 -23t42 -39.5t27 -52t15.5 -67.5
t7.5 -78.5t2 -92zM195 346q0 -155 11.5 -204.5t53.5 -49.5t53.5 49.5t11.5 204.5q0 157 -11.5 206.5t-53.5 49.5t-53.5 -49.5t-11.5 -206.5z" />
    <glyph glyph-name="one" unicode="1" horiz-adv-x="520" 
d="M197 0v491h-136v106h21q145 0 165 111h118v-708h-168z" />
    <glyph glyph-name="two" unicode="2" horiz-adv-x="520" 
d="M194 472h-156v23q0 213 228 213q120 0 169.5 -53t49.5 -145q0 -78 -22 -122t-90 -108q-14 -14 -38 -36.5t-36 -34.5t-27 -27.5t-23.5 -27.5t-13.5 -24h251v-130h-452q0 59 15.5 111t43.5 93t49.5 64.5t51.5 50.5q58 51 85.5 86t32.5 53.5t5 50.5q0 46 -12.5 69.5
t-46.5 23.5q-23 0 -37 -11.5t-19.5 -34.5t-6.5 -39.5t-1 -44.5z" />
    <glyph glyph-name="three" unicode="3" horiz-adv-x="520" 
d="M32 208h162q0 -116 62 -116q34 0 49 23t15 81q0 67 -18.5 90t-69.5 23h-40v106h46q40 0 56 26t16 80q0 81 -56 81q-65 0 -65 -102h-150q0 106 54 156q55 52 173 52q105 0 155.5 -46.5t50.5 -148.5q0 -55 -26.5 -93t-74.5 -49v-2q63 -14 90 -54t27 -116
q0 -108 -61.5 -160.5t-161.5 -52.5q-115 0 -174 47.5t-59 174.5z" />
    <glyph glyph-name="four" unicode="4" horiz-adv-x="520" 
d="M22 137v130l230 427h180v-427h66v-130h-66v-137h-156v137h-254zM276 267v237h-2l-119 -237h121z" />
    <glyph glyph-name="five" unicode="5" horiz-adv-x="520" 
d="M28 208h162v-26q0 -90 60 -90q38 0 51.5 37t13.5 115q0 64 -14.5 93.5t-47.5 29.5q-55 0 -62 -56h-156l22 383h397v-130h-268l-8 -133l2 -2q14 26 47.5 41t69.5 15q97 0 141.5 -58.5t44.5 -187.5q0 -133 -56.5 -193t-175.5 -60q-112 0 -167.5 50.5t-55.5 145.5v26z" />
    <glyph glyph-name="six" unicode="6" horiz-adv-x="520" 
d="M263 92q34 0 48 31t14 92q0 69 -12.5 97t-50.5 28q-35 0 -48 -29t-13 -84q0 -68 13.5 -101.5t48.5 -33.5zM479 527h-162q0 34 -10 53q-13 22 -41 22q-42 0 -56.5 -41.5t-14.5 -158.5h2q33 62 126 62q84 0 127 -52t43 -168q0 -57 -10.5 -100.5t-35 -80.5t-71.5 -57
t-115 -20q-61 0 -104.5 16.5t-68.5 43t-39 73t-18 94t-4 118.5q0 57 1.5 95.5t7 82t16 70.5t28.5 54t44 42t63.5 24t85.5 9q202 0 206 -181z" />
    <glyph glyph-name="seven" unicode="7" horiz-adv-x="520" 
d="M322 552h-290v142h451v-125q-79 -119 -132.5 -282.5t-59.5 -286.5h-174q8 124 68.5 288.5t136.5 263.5z" />
    <glyph glyph-name="eight" unicode="8" horiz-adv-x="520" 
d="M260 316q-67 0 -67 -111q0 -113 67 -113t67 113q0 111 -67 111zM260 422q30 0 44.5 20.5t14.5 70.5q0 89 -59 89t-59 -89q0 -50 14.5 -70.5t44.5 -20.5zM260 708q215 0 215 -183q0 -60 -26 -99t-74 -50v-2q57 -9 88.5 -52t31.5 -115q0 -49 -10 -86t-34.5 -69t-72.5 -49
t-118 -17q-135 0 -185 57t-50 164q0 65 29 111.5t88 55.5v2q-97 26 -97 149q0 183 215 183z" />
    <glyph glyph-name="nine" unicode="9" horiz-adv-x="520" 
d="M258 354q35 0 48 29.5t13 83.5q0 68 -13.5 101.5t-48.5 33.5q-34 0 -48 -31t-14 -92q0 -69 12.5 -97t50.5 -28zM41 166h162q0 -33 10 -52q13 -22 41 -22q42 0 56.5 41.5t14.5 158.5h-2q-33 -62 -126 -62q-84 0 -127 52t-43 168q0 57 10.5 100.5t35 80.5t71.5 57t115 20
q61 0 104.5 -16.5t68.5 -43t39 -73t18 -94t4 -118.5q0 -57 -1.5 -95.5t-7 -82t-16 -70.5t-28.5 -54t-44 -42t-63.5 -24t-85.5 -9q-202 0 -206 180z" />
    <glyph glyph-name="colon" unicode=":" 
d="M52 352v180h156v-180h-156zM52 0v180h156v-180h-156z" />
    <glyph glyph-name="semicolon" unicode=";" 
d="M52 352v180h156v-180h-156zM52 6v174h156v-149q0 -42 -5.5 -73t-21.5 -60.5t-48 -46.5t-81 -20v78q33 0 47.5 23t14.5 74h-62z" />
    <glyph glyph-name="semicolon" unicode="&#x37e;" 
d="M52 352v180h156v-180h-156zM52 6v174h156v-149q0 -42 -5.5 -73t-21.5 -60.5t-48 -46.5t-81 -20v78q33 0 47.5 23t14.5 74h-62z" />
    <glyph glyph-name="less" unicode="&#x3c;" horiz-adv-x="600" 
d="M47 188v130l506 196v-130l-338 -131l338 -131v-130z" />
    <glyph glyph-name="equal" unicode="=" horiz-adv-x="600" 
d="M47 79v130h506v-130h-506zM47 297v130h506v-130h-506z" />
    <glyph glyph-name="greater" unicode="&#x3e;" horiz-adv-x="600" 
d="M553 318v-130l-506 -196v130l338 131l-338 131v130z" />
    <glyph glyph-name="question" unicode="?" horiz-adv-x="500" 
d="M163 0v150h156v-150h-156zM189 491h-150v20q0 105 52.5 161t156.5 56q102 0 157.5 -50.5t55.5 -143.5q0 -47 -15 -86t-36.5 -64.5t-42.5 -48t-36 -47t-15 -51.5v-33h-150v32q0 87 34 136q12 16 43 45.5t46.5 58.5t15.5 73q0 73 -55 73q-32 0 -46.5 -30t-14.5 -101z" />
    <glyph glyph-name="at" unicode="@" horiz-adv-x="800" 
d="M526 488l13 52h87l-58 -250q-6 -28 -6 -40q0 -21 19 -21q35 0 68.5 49.5t33.5 124.5q0 107 -76 169t-190 62q-126 0 -204 -80t-78 -199t82.5 -197t206.5 -78q118 0 217 63h89q-54 -75 -133.5 -116t-175.5 -41q-165 0 -278.5 105.5t-113.5 265.5q0 158 113 264.5
t276 106.5q92 0 172 -37t130.5 -107.5t50.5 -158.5q0 -60 -20 -110.5t-49.5 -82t-65 -53.5t-64.5 -31t-50 -9q-59 0 -63 53h-2q-49 -53 -120 -53q-58 0 -102.5 47t-44.5 123q0 97 60 171.5t155 74.5q78 0 121 -67zM490 375q0 35 -22 57.5t-55 22.5q-49 0 -83 -41t-34 -89
q0 -38 20 -62t55 -24q50 0 84.5 42.5t34.5 93.5z" />
    <glyph glyph-name="A" unicode="A" horiz-adv-x="574" 
d="M2 0l182 714h210l178 -714h-174l-26 136h-171l-25 -136h-174zM347 266l-61 318h-2l-59 -318h122z" />
    <glyph glyph-name="B" unicode="B" horiz-adv-x="574" 
d="M220 317v-193h51q91 0 91 93q0 100 -88 100h-54zM220 590v-161h46q82 0 82 84q0 31 -19.5 54t-61.5 23h-47zM52 0v714h261q95 0 149 -44.5t54 -131.5q0 -63 -30.5 -107t-81.5 -54v-2q25 -4 44 -11.5t41 -25t34.5 -53t12.5 -87.5q0 -36 -9.5 -67t-33 -62.5t-73 -50
t-120.5 -18.5h-248z" />
    <glyph glyph-name="C" unicode="C" horiz-adv-x="537" 
d="M513 466h-162q0 82 -14 116t-54 34q-48 0 -60.5 -50.5t-12.5 -200.5q0 -166 13 -216.5t64 -50.5q42 0 56 44t14 138h162v-25q0 -63 -10.5 -108t-36.5 -83.5t-77 -58t-127 -19.5q-63 0 -106.5 19.5t-68 49.5t-37.5 83t-16.5 101t-3.5 123q0 47 1 78.5t6.5 73.5t15.5 69.5
t28 57.5t44 47t64.5 28.5t88.5 11.5q114 0 171.5 -54.5t57.5 -177.5v-30z" />
    <glyph glyph-name="D" unicode="D" horiz-adv-x="574" 
d="M220 590v-466h45q42 0 62.5 16.5t31.5 69.5t11 159q0 134 -19 177.5t-84 43.5h-47zM52 0v714h249q126 0 181.5 -75.5t55.5 -258.5q0 -84 -5 -139.5t-20.5 -105t-43.5 -77t-73.5 -43t-111.5 -15.5h-232z" />
    <glyph glyph-name="E" unicode="E" horiz-adv-x="500" 
d="M52 0v714h413v-136h-245v-143h230v-136h-230v-163h256v-136h-424z" />
    <glyph glyph-name="F" unicode="F" horiz-adv-x="481" 
d="M52 0v714h413v-136h-245v-143h230v-136h-230v-299h-168z" />
    <glyph glyph-name="G" unicode="G" horiz-adv-x="556" 
d="M516 497h-162q0 119 -67 119q-49 0 -63 -54.5t-14 -205.5q0 -153 14.5 -205.5t62.5 -52.5q42 0 59.5 36.5t17.5 113.5v23h-79v112h235v-383h-115l-4 68h-2q-35 -82 -154 -82q-53 0 -90.5 16.5t-60.5 44t-36 74.5t-17.5 98t-4.5 123q0 57 1.5 95.5t7 83t16.5 72.5t29.5 56
t45 44t65.5 25.5t89 9.5q62 0 106.5 -17t67 -40t35 -58.5t15 -59.5t2.5 -56z" />
    <glyph glyph-name="H" unicode="H" horiz-adv-x="574" 
d="M52 0v714h168v-267h134v267h168v-714h-168v305h-134v-305h-168z" />
    <glyph glyph-name="I" unicode="I" horiz-adv-x="278" 
d="M55 0v714h168v-714h-168z" />
    <glyph glyph-name="J" unicode="J" horiz-adv-x="500" 
d="M280 215v499h168v-499q0 -229 -219 -229q-213 0 -213 197v44h156v-31q0 -23 1 -36.5t6 -30t17 -24t31 -7.5q33 0 43 29t10 88z" />
    <glyph glyph-name="K" unicode="K" horiz-adv-x="574" 
d="M52 0v714h168v-282h2l157 282h181l-187 -308l210 -406h-189l-129 269l-45 -69v-200h-168z" />
    <glyph glyph-name="L" unicode="L" horiz-adv-x="463" 
d="M52 0v714h168v-578h243v-136h-411z" />
    <glyph glyph-name="M" unicode="M" horiz-adv-x="778" 
d="M57 0v714h246l88 -469h2l85 469h243v-714h-156v556h-2l-109 -556h-130l-115 556h-2v-556h-150z" />
    <glyph glyph-name="N" unicode="N" horiz-adv-x="593" 
d="M52 0v714h193l138 -464h2v464h156v-714h-190l-147 492h-2v-492h-150z" />
    <glyph glyph-name="O" unicode="O" horiz-adv-x="574" 
d="M538 357q0 -50 -1.5 -83.5t-7 -76t-15.5 -70.5t-28.5 -57t-45 -46t-65 -27.5t-88.5 -10.5q-65 0 -111 17.5t-73 47t-42 79t-20 101t-5 126.5t5 126.5t20 101t42 79t73 47t111 17.5q50 0 88.5 -10.5t65 -27.5t45 -46t28.5 -57t15.5 -70.5t7 -76t1.5 -83.5zM210 357
q0 -154 14 -206.5t62 -52.5q49 0 63.5 52.5t14.5 206.5t-14.5 206.5t-63.5 52.5q-48 0 -62 -52.5t-14 -206.5z" />
    <glyph glyph-name="P" unicode="P" horiz-adv-x="556" 
d="M220 590v-187h46q83 0 83 90q0 97 -86 97h-43zM52 0v714h260q63 0 107 -20.5t65.5 -55.5t30 -69t8.5 -72q0 -218 -229 -218h-74v-279h-168z" />
    <glyph glyph-name="Q" unicode="Q" horiz-adv-x="574" 
d="M468 -104l-95 100q-6 -2 -19.5 -4t-18.5 -3q-23 -3 -48 -3q-65 0 -111 17.5t-73 47t-42 79t-20 101t-5 126.5t5 126.5t20 101t42 79t73 47t111 17.5q50 0 88.5 -10.5t65 -27.5t45 -46t28.5 -57t15.5 -70.5t7 -76t1.5 -83.5q0 -104 -10 -172.5t-43 -115.5l81 -83zM210 357
q0 -154 14 -206.5t62 -52.5q49 0 63.5 52.5t14.5 206.5t-14.5 206.5t-63.5 52.5q-48 0 -62 -52.5t-14 -206.5z" />
    <glyph glyph-name="R" unicode="R" horiz-adv-x="574" 
d="M52 0v714h282q100 0 146 -52t46 -134q0 -76 -29.5 -117.5t-90.5 -56.5v-2q32 -5 53.5 -16.5t33 -24.5t18 -38t8 -44t2.5 -55q2 -102 8 -129.5t24 -35.5v-9h-181q-18 33 -18 145q0 91 -14.5 120.5t-55.5 29.5h-64v-295h-168zM220 596v-183h52q46 0 66 27t20 66
q0 90 -87 90h-51z" />
    <glyph glyph-name="S" unicode="S" horiz-adv-x="537" 
d="M29 218h162v-25q0 -45 16 -70t57 -25t58.5 24.5t17.5 60.5q0 31 -17 52.5t-44 34.5t-60 25t-65.5 28t-59.5 38.5t-44 62.5t-17 94q0 94 56 152t178 58q119 0 173.5 -53t54.5 -142v-17h-162q0 52 -14 75q-15 25 -51 25q-67 0 -67 -77q0 -30 17 -51.5t44 -34.5t59.5 -25
t65.5 -28t60 -37.5t44 -60t17 -89.5q0 -119 -62 -173t-182 -54q-235 0 -235 186v46z" />
    <glyph glyph-name="T" unicode="T" horiz-adv-x="480" 
d="M156 0v578h-150v136h468v-136h-150v-578h-168z" />
    <glyph glyph-name="U" unicode="U" horiz-adv-x="556" 
d="M513 714v-478q0 -57 -9.5 -99t-34.5 -78t-72.5 -54.5t-118.5 -18.5t-118.5 18.5t-72.5 54.5t-34.5 78t-9.5 99v478h168v-527q0 -89 67 -89t67 89v527h168z" />
    <glyph glyph-name="V" unicode="V" horiz-adv-x="537" 
d="M159 0l-157 714h180l85 -552h2l86 552h180l-162 -714h-214z" />
    <glyph glyph-name="W" unicode="W" horiz-adv-x="778" 
d="M132 0l-126 714h168l62 -508h2l74 508h156l80 -508h2l60 508h162l-124 -714h-186l-73 507h-2l-69 -507h-186z" />
    <glyph glyph-name="X" unicode="X" horiz-adv-x="556" 
d="M3 0l175 363l-158 351h186l73 -219h2l72 219h186l-163 -351l177 -363h-192l-85 235l-87 -235h-186z" />
    <glyph glyph-name="Y" unicode="Y" horiz-adv-x="536" 
d="M184 0v281l-181 433h186l80 -265h2l82 265h180l-181 -433v-281h-168z" />
    <glyph glyph-name="Z" unicode="Z" horiz-adv-x="481" 
d="M23 0v124l242 454h-223v136h416v-118l-245 -460h245v-136h-435z" />
    <glyph glyph-name="bracketleft" unicode="[" horiz-adv-x="333" 
d="M84 -184v898h253v-112h-103v-674h103v-112h-253z" />
    <glyph glyph-name="backslash" unicode="\" horiz-adv-x="352" 
d="M222 -14l-228 742h136l228 -742h-136z" />
    <glyph glyph-name="bracketright" unicode="]" horiz-adv-x="333" 
d="M-4 -184v112h103v674h-103v112h253v-898h-253z" />
    <glyph glyph-name="asciicircum" unicode="^" horiz-adv-x="600" 
d="M56 309l187 385h114l187 -385h-124l-120 249l-120 -249h-124z" />
    <glyph glyph-name="underscore" unicode="_" horiz-adv-x="500" 
d="M0 -125v50h500v-50h-500z" />
    <glyph glyph-name="grave" unicode="`" 
d="M85 599l-100 142h156l50 -142h-106z" />
    <glyph glyph-name="a" unicode="a" horiz-adv-x="500" 
d="M183 167q0 -69 47 -69q65 0 65 74q0 25 0.5 55.5t0.5 39.5q-27 -14 -54 -24t-34 -16q-25 -19 -25 -60zM186 375h-144q1 104 61 145q51 35 151 35q101 0 146.5 -37.5t45.5 -122.5v-278q0 -93 19 -117h-156q-7 19 -9 62h-2q-17 -36 -51 -56t-76 -20q-144 0 -144 165
q0 47 18 84t48 54q18 10 41.5 17.5t59 16t44.5 10.5q38 11 48 21.5t10 40.5q0 54 -51 54q-32 0 -45 -18t-14 -56z" />
    <glyph glyph-name="b" unicode="b" horiz-adv-x="519" 
d="M204 267q0 -85 12 -124t46 -39q21 0 34.5 13t19.5 40.5t7.5 52t1.5 64.5q0 44 -1.5 68.5t-7.5 49t-19 35t-34 10.5q-20 0 -32.5 -12t-18 -38t-7 -52t-1.5 -68zM45 0v714h162v-232h2q35 73 121 73q48 0 80 -20.5t48.5 -62t22.5 -89.5t6 -117q0 -148 -42 -214t-125 -66
q-49 0 -78.5 24t-38.5 56h-2v-66h-156z" />
    <glyph glyph-name="c" unicode="c" horiz-adv-x="481" 
d="M461 337h-150q0 60 -14.5 86t-46.5 26q-37 0 -49 -43t-12 -136q0 -99 11.5 -138.5t49.5 -39.5q35 0 47 26.5t14 101.5h150q-1 -124 -52 -179t-162 -55q-43 0 -76.5 9t-56.5 23t-39.5 37.5t-25.5 47t-14 57.5t-6.5 62.5t-1.5 67.5q0 126 48.5 195.5t171.5 69.5
q120 0 167 -56t47 -162z" />
    <glyph glyph-name="d" unicode="d" horiz-adv-x="519" 
d="M315 267q0 42 -1.5 68t-7 52t-18 38t-32.5 12q-21 0 -34 -10.5t-19 -35t-7.5 -49t-1.5 -68.5q0 -40 1.5 -64.5t7.5 -52t19.5 -40.5t34.5 -13q34 0 46 39t12 124zM318 0v66h-2q-29 -80 -117 -80q-83 0 -125 66t-42 214q0 69 6 117t22.5 89.5t48.5 62t80 20.5q86 0 121 -73
h2v232h162v-714h-156z" />
    <glyph glyph-name="e" unicode="e" horiz-adv-x="481" 
d="M189 338h117q0 61 -11.5 89t-43.5 28q-37 0 -49.5 -28t-12.5 -89zM462 244h-273v-33q0 -66 12.5 -95.5t46.5 -29.5q31 0 43.5 22.5t15.5 76.5h150q-4 -199 -210 -199q-43 0 -76.5 9t-56.5 23t-39.5 37.5t-25.5 47t-14 57.5t-6.5 62.5t-1.5 67.5q0 126 48.5 195.5
t171.5 69.5q49 0 85.5 -9.5t59.5 -31t37.5 -45.5t21.5 -63.5t9 -74t2 -87.5z" />
    <glyph glyph-name="f" unicode="f" horiz-adv-x="296" 
d="M66 0v429h-67v112h67v45q0 78 34.5 110t130.5 32q51 0 72 -3v-109h-23q-32 0 -42 -8.5t-10 -32.5v-34h75v-112h-75v-429h-162z" />
    <glyph glyph-name="g" unicode="g" horiz-adv-x="519" 
d="M198 280q0 -84 13 -116.5t46 -32.5q34 0 47.5 32.5t13.5 121.5q0 78 -12.5 112t-46.5 34q-37 0 -49 -37.5t-12 -113.5zM324 468v73h150v-522q0 -99 -51.5 -151t-173.5 -52q-203 0 -203 150h150q4 -22 17 -33q17 -11 40 -11q39 0 52 29.5t13 108.5v33h-2q-29 -80 -128 -80
q-152 0 -152 265q0 44 3 78.5t12.5 73.5t26 65t46.5 43t70 17q94 0 128 -87h2z" />
    <glyph glyph-name="h" unicode="h" horiz-adv-x="519" 
d="M45 0v714h162v-232h2q37 73 124 73q141 0 141 -150v-405h-162v369q0 62 -47 62q-25 0 -41.5 -19.5t-16.5 -57.5v-354h-162z" />
    <glyph glyph-name="i" unicode="i" 
d="M49 598v124h162v-124h-162zM49 0v541h162v-541h-162z" />
    <glyph glyph-name="j" unicode="j" 
d="M49 598v124h162v-124h-162zM49 6v535h162v-554q0 -89 -33 -126t-132 -37q-15 0 -69 2v111q5 -1 13 -1h10q33 2 41 16t8 54z" />
    <glyph glyph-name="k" unicode="k" horiz-adv-x="519" 
d="M45 0v714h162v-367h2l121 194h178l-155 -218l174 -323h-177l-101 204l-42 -57v-147h-162z" />
    <glyph glyph-name="l" unicode="l" 
d="M49 0v714h162v-714h-162z" />
    <glyph glyph-name="m" unicode="m" horiz-adv-x="796" 
d="M50 0v541h156v-64h2q17 36 51.5 57t78.5 21q106 0 133 -83q27 46 57.5 64.5t76.5 18.5q141 0 141 -150v-405h-162v369q0 62 -47 62q-25 0 -41.5 -19.5t-16.5 -57.5v-354h-162v369q0 62 -47 62q-25 0 -41.5 -19.5t-16.5 -57.5v-354h-162z" />
    <glyph glyph-name="n" unicode="n" horiz-adv-x="519" 
d="M45 0v541h156v-64h2q17 36 51.5 57t78.5 21q141 0 141 -150v-405h-162v369q0 62 -47 62q-25 0 -41.5 -19.5t-16.5 -57.5v-354h-162z" />
    <glyph glyph-name="o" unicode="o" horiz-adv-x="500" 
d="M250 -14q-58 0 -99 14.5t-65 38t-37.5 62t-17.5 76.5t-4 92q0 66 9 114t32 89t68.5 62t113.5 21q58 0 99 -14.5t65 -38t37.5 -61.5t17.5 -76.5t4 -92.5q0 -66 -9 -114t-32 -89t-68.5 -62t-113.5 -21zM311 270q0 104 -12 141.5t-48 37.5t-49 -39t-13 -139t13 -139.5
t49 -39.5t48 37.5t12 140.5z" />
    <glyph glyph-name="p" unicode="p" horiz-adv-x="519" 
d="M204 274q0 -42 1.5 -68t7 -52t18 -38t32.5 -12q21 0 34 10.5t19 35t7.5 49t1.5 68.5q0 40 -1.5 64.5t-7.5 52t-19.5 40.5t-34.5 13q-34 0 -46 -39t-12 -124zM45 -176v717h156v-66h2q9 32 38.5 56t78.5 24q83 0 125 -66t42 -214q0 -69 -6 -117t-22.5 -89.5t-48.5 -62
t-80 -20.5q-88 0 -121 73h-2v-235h-162z" />
    <glyph glyph-name="q" unicode="q" horiz-adv-x="519" 
d="M315 274q0 85 -12 124t-46 39q-21 0 -34.5 -13t-19.5 -40.5t-7.5 -52t-1.5 -64.5q0 -44 1.5 -68.5t7.5 -49t19 -35t34 -10.5q20 0 32.5 12t18 38t7 52t1.5 68zM312 -176v235h-2q-33 -73 -121 -73q-48 0 -80 20.5t-48.5 62t-22.5 89.5t-6 117q0 148 42 214t125 66
q88 0 117 -80h2v66h156v-717h-162z" />
    <glyph glyph-name="r" unicode="r" horiz-adv-x="370" 
d="M45 0v541h156v-76h2q39 90 130 90h12q4 0 14 -2v-152q-21 4 -45 4q-107 0 -107 -98v-307h-162z" />
    <glyph glyph-name="s" unicode="s" horiz-adv-x="463" 
d="M25 172h144q2 -43 11 -61q15 -25 50 -25q28 0 43 15.5t15 39.5q0 45 -62 66q-48 16 -72.5 25.5t-53 25.5t-41.5 32.5t-21.5 42t-8.5 59.5q0 80 53.5 121.5t152.5 41.5q105 0 150.5 -43t45.5 -109v-18h-144v10q0 34 -12.5 47t-40.5 13q-55 0 -55 -50q0 -22 19 -36.5
t48 -21.5t62.5 -20t62.5 -29t48 -51t19 -84q0 -83 -53.5 -130t-153.5 -47q-107 0 -156.5 40t-49.5 122v24z" />
    <glyph glyph-name="t" unicode="t" horiz-adv-x="315" 
d="M66 140v289h-67v112h67v159h162v-159h75v-112h-75v-273q0 -29 11 -39.5t41 -10.5q9 0 23 2v-108q-47 -6 -93 -6q-87 0 -115.5 27t-28.5 119z" />
    <glyph glyph-name="u" unicode="u" horiz-adv-x="519" 
d="M474 541v-541h-156v64h-2q-17 -36 -51.5 -57t-78.5 -21q-141 0 -141 150v405h162v-369q0 -62 47 -62q25 0 41.5 19.5t16.5 57.5v354h162z" />
    <glyph glyph-name="v" unicode="v" horiz-adv-x="481" 
d="M144 0l-133 541h168l63 -399h2l64 399h162l-134 -541h-192z" />
    <glyph glyph-name="w" unicode="w" horiz-adv-x="741" 
d="M122 0l-113 541h162l52 -399h2l61 399h174l57 -399h2l57 399h156l-117 -541h-183l-59 399h-2l-63 -399h-186z" />
    <glyph glyph-name="x" unicode="x" horiz-adv-x="481" 
d="M4 0l145 280l-136 261h162l64 -161l66 161h162l-135 -261l145 -280h-162l-73 175l-76 -175h-162z" />
    <glyph glyph-name="y" unicode="y" horiz-adv-x="481" 
d="M163 -4l-153 545h168l66 -379h2l63 379h162l-145 -545q-28 -104 -67.5 -138t-133.5 -34h-37q-11 0 -33 2v114q17 -4 40 -4q57 0 68 60z" />
    <glyph glyph-name="z" unicode="z" horiz-adv-x="463" 
d="M31 0v124l204 293h-195v124h387v-124l-210 -293h215v-124h-401z" />
    <glyph glyph-name="braceleft" unicode="{" horiz-adv-x="333" 
d="M91 -49v180q0 38 -27 64t-66 26v88q37 0 65 23.5t28 59.5v187q0 65 36.5 100t106.5 35h101v-112h-40q-54 0 -54 -73v-152q0 -45 -27 -75t-72 -36v-2q99 -13 99 -118v-145q0 -73 54 -73h40v-112h-101q-67 0 -105 34t-38 101z" />
    <glyph glyph-name="bar" unicode="|" horiz-adv-x="222" 
d="M46 -14v742h130v-742h-130z" />
    <glyph glyph-name="braceright" unicode="}" horiz-adv-x="333" 
d="M92 1v152q0 45 27 75t72 36v2q-99 13 -99 118v145q0 73 -54 73h-40v112h101q67 0 105 -34t38 -101v-180q0 -38 27 -64t66 -26v-88q-37 0 -65 -23.5t-28 -59.5v-187q0 -65 -36.5 -100t-106.5 -35h-101v112h40q54 0 54 73z" />
    <glyph glyph-name="asciitilde" unicode="~" horiz-adv-x="600" 
d="M495 352l36 -112q-46 -86 -123 -86q-52 0 -118 34t-95 34q-27 0 -53.5 -23t-36.5 -45l-36 112q46 86 123 86q52 0 118 -34t95 -34q27 0 53.5 23t36.5 45z" />
    <glyph glyph-name="uni00A0" unicode="&#xa0;" 
 />
    <glyph glyph-name="exclamdown" unicode="&#xa1;" horiz-adv-x="334" 
d="M244 544v-150h-156v150h156zM248 64v-234h-162v234l18 276h124z" />
    <glyph glyph-name="cent" unicode="&#xa2;" horiz-adv-x="520" 
d="M228 -105v91q-116 10 -156 100q-29 65 -29 204q0 120 40.5 188t144.5 77v80h78v-80q96 -9 133.5 -64t37.5 -154h-150q0 60 -14.5 86t-46.5 26q-37 0 -49 -43t-12 -136q0 -99 11.5 -138.5t49.5 -39.5q35 0 47 26.5t14 101.5h150q-1 -113 -42 -168.5t-129 -65.5v-91h-78z
" />
    <glyph glyph-name="sterling" unicode="&#xa3;" horiz-adv-x="520" 
d="M60 -8l-43 94q116 76 116 170q0 21 -5 36h-107v94h67q-44 77 -44 143q0 81 58 130t157 49q125 0 179 -53t54 -153h-150v14q0 86 -65 86q-71 0 -71 -73q0 -21 7.5 -43t33.5 -80q6 -13 9 -20h172v-94h-138q5 -12 5 -28q0 -41 -25 -76t-78 -76l2 -2q19 11 50 11
q22 0 52 -11.5t56 -11.5q50 0 104 37l47 -103q-73 -46 -161 -46q-25 0 -85.5 18t-92.5 18q-42 0 -104 -30z" />
    <glyph glyph-name="currency" unicode="&#xa4;" horiz-adv-x="520" 
d="M2 155l54 54q-42 61 -42 138t42 138l-54 54l66 66l54 -54q62 42 138 42q77 0 138 -42l54 54l66 -66l-54 -54q42 -61 42 -138q0 -78 -43 -137l55 -55l-66 -66l-54 54q-61 -42 -138 -42q-78 0 -137 43l-55 -55zM138 347q0 -54 33.5 -91t88.5 -37t88.5 37t33.5 91t-33.5 91
t-88.5 37t-88.5 -37t-33.5 -91z" />
    <glyph glyph-name="yen" unicode="&#xa5;" horiz-adv-x="520" 
d="M182 0v132h-145v94h145v55l-8 19h-137v94h98l-129 300h171l84 -257h2l86 257h165l-129 -300h98v-94h-137l-8 -19v-55h145v-94h-145v-132h-156z" />
    <glyph glyph-name="brokenbar" unicode="&#xa6;" horiz-adv-x="222" 
d="M46 457v271h130v-271h-130zM46 -14v271h130v-271h-130z" />
    <glyph glyph-name="section" unicode="&#xa7;" horiz-adv-x="519" 
d="M363 275q0 30 -27 50t-71 36.5t-58 26.5q-24 -12 -37.5 -30.5t-13.5 -36.5q0 -30 22.5 -45.5t69 -33t75.5 -36.5q40 32 40 69zM43 41h156v-16q-1 -32 14.5 -51.5t43.5 -19.5q54 0 54 67q0 29 -29.5 49.5t-71.5 36.5t-83.5 36t-71 59.5t-29.5 96.5q0 46 24.5 85t60.5 59
q-59 38 -59 115q0 87 57.5 128.5t149.5 41.5q116 0 164 -43t48 -123v-8h-150v15q0 53 -57 53q-30 0 -43 -14.5t-13 -34.5q0 -27 29.5 -45.5t71 -33.5t83.5 -35t71.5 -61t29.5 -100q0 -48 -19 -82t-57 -66q56 -52 56 -128q0 -174 -217 -174q-110 0 -161.5 46.5t-51.5 121.5
v25z" />
    <glyph glyph-name="dieresis" unicode="&#xa8;" 
d="M156 605v130h124v-130h-124zM-20 605v130h124v-130h-124z" />
    <glyph glyph-name="copyright" unicode="&#xa9;" horiz-adv-x="800" 
d="M29 357q0 154 108.5 262.5t262.5 108.5t262.5 -108.5t108.5 -262.5t-108.5 -262.5t-262.5 -108.5t-262.5 108.5t-108.5 262.5zM135 357q0 -115 77.5 -193t187.5 -78t187.5 78t77.5 193t-77.5 193t-187.5 78t-187.5 -78t-77.5 -193zM495 294h104q-12 -74 -64 -116.5
t-120 -42.5q-97 0 -155 63t-58 159q0 98 56.5 160t153.5 62q71 0 121 -40.5t61 -115.5h-98q-19 62 -89 62q-49 0 -77 -36.5t-28 -91.5q0 -52 29.5 -90t74.5 -38q36 0 60.5 18t28.5 47z" />
    <glyph glyph-name="ordfeminine" unicode="&#xaa;" horiz-adv-x="325" 
d="M189 477v54q-14 -8 -30 -14.5t-21 -10.5q-14 -12 -14 -32q0 -35 29 -35q14 0 25 9.5t11 28.5zM313 374h-115q-10 16 -10 37h-2q-4 -20 -26 -32q-21 -12 -51 -12q-49 0 -73 22.5t-24 72.5q0 58 45 82q12 6 28.5 10.5t39 9.5l31.5 7q21 6 27 12.5t6 24.5q0 28 -29 28
q-32 0 -34 -40h-112q1 66 40 91q33 21 110 21q74 0 105.5 -22.5t31.5 -73.5v-168q0 -55 12 -70z" />
    <glyph glyph-name="guillemotleft" unicode="&#xab;" horiz-adv-x="444" 
d="M242 192v194l156 110v-150l-83 -57l83 -57v-150zM46 192v194l156 110v-150l-83 -57l83 -57v-150z" />
    <glyph glyph-name="logicalnot" unicode="&#xac;" horiz-adv-x="600" 
d="M423 98v199h-376v130h506v-329h-130z" />
    <glyph glyph-name="uni00AD" unicode="&#xad;" horiz-adv-x="370" 
d="M34 221v136h302v-136h-302z" />
    <glyph glyph-name="registered" unicode="&#xae;" horiz-adv-x="800" 
d="M29 357q0 154 108.5 262.5t262.5 108.5t262.5 -108.5t108.5 -262.5t-108.5 -262.5t-262.5 -108.5t-262.5 108.5t-108.5 262.5zM135 357q0 -115 77.5 -193t187.5 -78t187.5 78t77.5 193t-77.5 193t-187.5 78t-187.5 -78t-77.5 -193zM334 491v-105h68q34 0 51 11t17 42
q0 52 -77 52h-59zM242 150v413h163q159 0 159 -129q0 -51 -27.5 -80.5t-71.5 -35.5l103 -168h-104l-93 164h-35v-164h-94z" />
    <glyph glyph-name="macron" unicode="&#xaf;" 
d="M-25 626v88h310v-88h-310z" />
    <glyph glyph-name="degree" unicode="&#xb0;" horiz-adv-x="400" 
d="M48 556q0 63 44.5 107.5t107.5 44.5t107.5 -44.5t44.5 -107.5t-44.5 -107.5t-107.5 -44.5t-107.5 44.5t-44.5 107.5zM126 556q0 -31 21.5 -52.5t52.5 -21.5t52.5 21.5t21.5 52.5t-21.5 52.5t-52.5 21.5t-52.5 -21.5t-21.5 -52.5z" />
    <glyph glyph-name="plusminus" unicode="&#xb1;" horiz-adv-x="600" 
d="M47 0v130h506v-130h-506zM235 166v105h-188v130h188v105h130v-105h188v-130h-188v-105h-130z" />
    <glyph glyph-name="twosuperior" unicode="&#xb2;" horiz-adv-x="338" 
d="M129 562h-118v19q0 65 38.5 96t121.5 31q90 0 124 -31.5t34 -91.5q0 -46 -16.5 -76.5t-77.5 -73.5q-55 -38 -68 -61h158v-94h-316q4 103 110 190q38 30 56 51.5t21 32.5t3 30q0 46 -33 46q-37 0 -37 -68z" />
    <glyph glyph-name="threesuperior" unicode="&#xb3;" horiz-adv-x="338" 
d="M131 578h-118q0 67 35 99q37 31 126 31q81 0 116.5 -27.5t35.5 -90.5q0 -73 -77 -86v-2q47 -8 66 -30.5t19 -64.5q0 -134 -161 -134q-88 0 -128.5 29.5t-40.5 112.5h130q0 -26 7 -43q7 -21 26 -21q37 0 37 51q0 33 -12.5 45.5t-44.5 12.5h-28v78h30q47 0 47 54
q0 38 -30 38q-35 0 -35 -52z" />
    <glyph glyph-name="acute" unicode="&#xb4;" 
d="M69 599l50 142h156l-100 -142h-106z" />
    <glyph glyph-name="mu" unicode="&#xb5;" horiz-adv-x="519" 
d="M474 541v-541h-156v64h-2q-13 -31 -37 -54.5t-50 -23.5q-15 0 -22 4v-166h-162v717h162v-369q0 -62 47 -62q25 0 41.5 19.5t16.5 57.5v354h162z" />
    <glyph glyph-name="paragraph" unicode="&#xb6;" horiz-adv-x="600" 
d="M193 -138v475q-61 0 -108.5 51t-47.5 134q0 90 48.5 141t131.5 51h302v-852h-130v752h-66v-752h-130z" />
    <glyph glyph-name="periodcentered" unicode="&#xb7;" 
d="M27 273q0 43 30 73t73 30t73 -30t30 -73t-30 -73t-73 -30t-73 30t-30 73z" />
    <glyph glyph-name="cedilla" unicode="&#xb8;" 
d="M13 -205l21 52q36 -15 73 -15q46 0 46 34q0 13 -13.5 22t-32.5 9q-11 0 -29 -6l-23 19l52 90h59l-35 -60q9 4 26 4q44 0 67 -22.5t23 -54.5q0 -39 -31 -65t-89 -26q-66 0 -114 19z" />
    <glyph glyph-name="onesuperior" unicode="&#xb9;" horiz-adv-x="338" 
d="M118 280v286h-81v78h13q93 0 108 64h90v-428h-130z" />
    <glyph glyph-name="ordmasculine" unicode="&#xba;" horiz-adv-x="325" 
d="M315 538q0 -83 -31.5 -127t-120.5 -44q-50 0 -81.5 12t-46.5 37.5t-20 52t-5 67.5q0 85 31 128.5t122 43.5q49 0 80.5 -12t46.5 -37.5t20 -52.5t5 -68zM128 538q0 -55 7.5 -77t27.5 -22t27 21t7 77t-7 77.5t-27 21.5t-27.5 -22t-7.5 -76z" />
    <glyph glyph-name="guillemotright" unicode="&#xbb;" horiz-adv-x="444" 
d="M242 82v150l83 55l-83 59v150l156 -110v-194zM46 82v150l83 55l-83 59v150l156 -110v-194z" />
    <glyph glyph-name="onequarter" unicode="&#xbc;" horiz-adv-x="778" 
d="M98 280v286h-81v78h13q93 0 108 64h90v-428h-130zM110 -31l400 756h99l-400 -756h-99zM426 74v94l141 252h142v-252h44v-94h-44v-74h-124v74h-159zM585 168v128h-2l-67 -128h69z" />
    <glyph glyph-name="onehalf" unicode="&#xbd;" horiz-adv-x="778" 
d="M553 282h-118v19q0 65 38.5 96t121.5 31q90 0 124 -31.5t34 -91.5q0 -46 -16.5 -76.5t-77.5 -73.5q-55 -38 -68 -61h158v-94h-316q4 103 110 190q38 30 56 51.5t21 32.5t3 30q0 46 -33 46q-37 0 -37 -68zM98 280v286h-81v78h13q93 0 108 64h90v-428h-130zM110 -31
l400 756h99l-400 -756h-99z" />
    <glyph glyph-name="threequarters" unicode="&#xbe;" horiz-adv-x="778" 
d="M125 578h-118q0 67 35 99q37 31 126 31q81 0 116.5 -27.5t35.5 -90.5q0 -73 -77 -86v-2q47 -8 66 -30.5t19 -64.5q0 -134 -161 -134q-88 0 -128.5 29.5t-40.5 112.5h130q0 -26 7 -43q7 -21 26 -21q37 0 37 51q0 33 -12.5 45.5t-44.5 12.5h-28v78h30q47 0 47 54
q0 38 -30 38q-35 0 -35 -52zM150 -31l400 756h99l-400 -756h-99zM459 74v94l141 252h142v-252h44v-94h-44v-74h-124v74h-159zM618 168v128h-2l-67 -128h69z" />
    <glyph glyph-name="questiondown" unicode="&#xbf;" horiz-adv-x="500" 
d="M337 544v-150h-156v150h156zM311 53h150v-20q0 -105 -52.5 -161t-156.5 -56q-102 0 -157.5 50.5t-55.5 143.5q0 47 15 86t36.5 64.5t42.5 47.5t36 47t15 52v33h150v-32q0 -87 -34 -136q-11 -16 -42.5 -45.5t-47 -58.5t-15.5 -73q0 -73 55 -73q32 0 46.5 30t14.5 101z" />
    <glyph glyph-name="Agrave" unicode="&#xc0;" horiz-adv-x="574" 
d="M2 0l182 714h210l178 -714h-174l-26 136h-171l-25 -136h-174zM347 266l-61 318h-2l-59 -318h122zM250 759l-100 142h156l50 -142h-106z" />
    <glyph glyph-name="Aacute" unicode="&#xc1;" horiz-adv-x="574" 
d="M2 0l182 714h210l178 -714h-174l-26 136h-171l-25 -136h-174zM347 266l-61 318h-2l-59 -318h122zM232 759l50 142h156l-100 -142h-106z" />
    <glyph glyph-name="Acircumflex" unicode="&#xc2;" horiz-adv-x="574" 
d="M2 0l182 714h210l178 -714h-174l-26 136h-171l-25 -136h-174zM347 266l-61 318h-2l-59 -318h122zM130 759l71 142h168l71 -142h-118l-37 81l-36 -81h-119z" />
    <glyph glyph-name="Atilde" unicode="&#xc3;" horiz-adv-x="574" 
d="M2 0l182 714h210l178 -714h-174l-26 136h-171l-25 -136h-174zM347 266l-61 318h-2l-59 -318h122zM369 898h80q-12 -136 -100 -136q-27 0 -67.5 15t-50.5 15q-21 0 -29 -30h-77q5 60 27 94q27 42 67 42q32 0 68 -15q43 -15 51 -15q17 0 22.5 7.5t8.5 22.5z" />
    <glyph glyph-name="Adieresis" unicode="&#xc4;" horiz-adv-x="574" 
d="M2 0l182 714h210l178 -714h-174l-26 136h-171l-25 -136h-174zM347 266l-61 318h-2l-59 -318h122zM313 765v130h124v-130h-124zM137 765v130h124v-130h-124z" />
    <glyph glyph-name="Aring" unicode="&#xc5;" horiz-adv-x="574" 
d="M2 0l182 714h210l178 -714h-174l-26 136h-171l-25 -136h-174zM347 266l-61 318h-2l-59 -318h122zM226 850q0 -25 17.5 -42.5t42.5 -17.5t42.5 17.5t17.5 42.5t-17.5 42.5t-42.5 17.5t-42.5 -17.5t-17.5 -42.5zM165 850q0 51 35 84t86 33t86 -33t35 -84t-35 -83t-86 -32
t-86 32t-35 83z" />
    <glyph glyph-name="AE" unicode="&#xc6;" horiz-adv-x="796" 
d="M377 266v312h-8l-100 -312h108zM9 0l270 714h479v-136h-225v-143h210v-136h-210v-163h234v-136h-390v136h-150l-44 -136h-174z" />
    <glyph glyph-name="Ccedilla" unicode="&#xc7;" horiz-adv-x="537" 
d="M155 -205l21 52q36 -15 73 -15q46 0 46 34q0 13 -13.5 22t-32.5 9q-11 0 -29 -6l-23 19l44 77q-63 5 -100 27q-65 41 -85 122.5t-20 225.5q0 47 1 78.5t6.5 73.5t15.5 69.5t28 57.5t44 47t64.5 28.5t88.5 11.5q114 0 171.5 -54.5t57.5 -177.5v-30h-162q0 82 -14 116
t-54 34q-48 0 -60.5 -50.5t-12.5 -200.5q0 -166 13 -216.5t64 -50.5q42 0 56 44t14 138h162v-25q0 -96 -27 -157.5t-97 -91.5q-37 -14 -95 -19l-27 -47q9 4 26 4q44 0 67 -22.5t23 -54.5q0 -39 -31 -65t-89 -26q-66 0 -114 19z" />
    <glyph glyph-name="Egrave" unicode="&#xc8;" horiz-adv-x="500" 
d="M52 0v714h413v-136h-245v-143h230v-136h-230v-163h256v-136h-424zM235 759l-100 142h156l50 -142h-106z" />
    <glyph glyph-name="Eacute" unicode="&#xc9;" horiz-adv-x="500" 
d="M52 0v714h413v-136h-245v-143h230v-136h-230v-163h256v-136h-424zM201 759l50 142h156l-100 -142h-106z" />
    <glyph glyph-name="Ecircumflex" unicode="&#xca;" horiz-adv-x="500" 
d="M52 0v714h413v-136h-245v-143h230v-136h-230v-163h256v-136h-424zM103 759l71 142h168l71 -142h-118l-37 81l-36 -81h-119z" />
    <glyph glyph-name="Edieresis" unicode="&#xcb;" horiz-adv-x="500" 
d="M52 0v714h413v-136h-245v-143h230v-136h-230v-163h256v-136h-424zM283 765v130h124v-130h-124zM107 765v130h124v-130h-124z" />
    <glyph glyph-name="Igrave" unicode="&#xcc;" horiz-adv-x="278" 
d="M55 0v714h168v-714h-168zM115 759l-100 142h156l50 -142h-106z" />
    <glyph glyph-name="Iacute" unicode="&#xcd;" horiz-adv-x="278" 
d="M55 0v714h168v-714h-168zM56 759l50 142h156l-100 -142h-106z" />
    <glyph glyph-name="Icircumflex" unicode="&#xce;" horiz-adv-x="278" 
d="M55 0v714h168v-714h-168zM-16 759l71 142h168l71 -142h-118l-37 81l-36 -81h-119z" />
    <glyph glyph-name="Idieresis" unicode="&#xcf;" horiz-adv-x="278" 
d="M55 0v714h168v-714h-168zM165 765v130h124v-130h-124zM-11 765v130h124v-130h-124z" />
    <glyph glyph-name="Eth" unicode="&#xd0;" horiz-adv-x="574" 
d="M52 0v317h-52v112h52v285h245q126 0 181.5 -75t59.5 -259q-2 -85 -7.5 -140t-21.5 -105t-44 -77t-73.5 -42.5t-111.5 -15.5h-228zM220 317v-193h45q42 0 62.5 16.5t31.5 69.5t11 159q0 134 -19 177.5t-84 43.5h-47v-161h62v-112h-62z" />
    <glyph glyph-name="Ntilde" unicode="&#xd1;" horiz-adv-x="593" 
d="M52 0v714h193l138 -464h2v464h156v-714h-190l-147 492h-2v-492h-150zM381 898h80q-12 -136 -100 -136q-27 0 -67.5 15t-50.5 15q-21 0 -29 -30h-77q5 60 27 94q27 42 67 42q32 0 68 -15q43 -15 51 -15q17 0 22.5 7.5t8.5 22.5z" />
    <glyph glyph-name="Ograve" unicode="&#xd2;" horiz-adv-x="574" 
d="M538 357q0 -50 -1.5 -83.5t-7 -76t-15.5 -70.5t-28.5 -57t-45 -46t-65 -27.5t-88.5 -10.5q-65 0 -111 17.5t-73 47t-42 79t-20 101t-5 126.5t5 126.5t20 101t42 79t73 47t111 17.5q50 0 88.5 -10.5t65 -27.5t45 -46t28.5 -57t15.5 -70.5t7 -76t1.5 -83.5zM210 357
q0 -154 14 -206.5t62 -52.5q49 0 63.5 52.5t14.5 206.5t-14.5 206.5t-63.5 52.5q-48 0 -62 -52.5t-14 -206.5zM240 759l-100 142h156l50 -142h-106z" />
    <glyph glyph-name="Oacute" unicode="&#xd3;" horiz-adv-x="574" 
d="M538 357q0 -50 -1.5 -83.5t-7 -76t-15.5 -70.5t-28.5 -57t-45 -46t-65 -27.5t-88.5 -10.5q-65 0 -111 17.5t-73 47t-42 79t-20 101t-5 126.5t5 126.5t20 101t42 79t73 47t111 17.5q50 0 88.5 -10.5t65 -27.5t45 -46t28.5 -57t15.5 -70.5t7 -76t1.5 -83.5zM210 357
q0 -154 14 -206.5t62 -52.5q49 0 63.5 52.5t14.5 206.5t-14.5 206.5t-63.5 52.5q-48 0 -62 -52.5t-14 -206.5zM230 759l50 142h156l-100 -142h-106z" />
    <glyph glyph-name="Ocircumflex" unicode="&#xd4;" horiz-adv-x="574" 
d="M538 357q0 -50 -1.5 -83.5t-7 -76t-15.5 -70.5t-28.5 -57t-45 -46t-65 -27.5t-88.5 -10.5q-65 0 -111 17.5t-73 47t-42 79t-20 101t-5 126.5t5 126.5t20 101t42 79t73 47t111 17.5q50 0 88.5 -10.5t65 -27.5t45 -46t28.5 -57t15.5 -70.5t7 -76t1.5 -83.5zM210 357
q0 -154 14 -206.5t62 -52.5q49 0 63.5 52.5t14.5 206.5t-14.5 206.5t-63.5 52.5q-48 0 -62 -52.5t-14 -206.5zM132 759l71 142h168l71 -142h-118l-37 81l-36 -81h-119z" />
    <glyph glyph-name="Otilde" unicode="&#xd5;" horiz-adv-x="574" 
d="M538 357q0 -50 -1.5 -83.5t-7 -76t-15.5 -70.5t-28.5 -57t-45 -46t-65 -27.5t-88.5 -10.5q-65 0 -111 17.5t-73 47t-42 79t-20 101t-5 126.5t5 126.5t20 101t42 79t73 47t111 17.5q50 0 88.5 -10.5t65 -27.5t45 -46t28.5 -57t15.5 -70.5t7 -76t1.5 -83.5zM210 357
q0 -154 14 -206.5t62 -52.5q49 0 63.5 52.5t14.5 206.5t-14.5 206.5t-63.5 52.5q-48 0 -62 -52.5t-14 -206.5zM368 898h80q-12 -136 -100 -136q-27 0 -67.5 15t-50.5 15q-21 0 -29 -30h-77q5 60 27 94q27 42 67 42q32 0 68 -15q43 -15 51 -15q17 0 22.5 7.5t8.5 22.5z" />
    <glyph glyph-name="Odieresis" unicode="&#xd6;" horiz-adv-x="574" 
d="M538 357q0 -50 -1.5 -83.5t-7 -76t-15.5 -70.5t-28.5 -57t-45 -46t-65 -27.5t-88.5 -10.5q-65 0 -111 17.5t-73 47t-42 79t-20 101t-5 126.5t5 126.5t20 101t42 79t73 47t111 17.5q50 0 88.5 -10.5t65 -27.5t45 -46t28.5 -57t15.5 -70.5t7 -76t1.5 -83.5zM210 357
q0 -154 14 -206.5t62 -52.5q49 0 63.5 52.5t14.5 206.5t-14.5 206.5t-63.5 52.5q-48 0 -62 -52.5t-14 -206.5zM311 765v130h124v-130h-124zM135 765v130h124v-130h-124z" />
    <glyph glyph-name="multiply" unicode="&#xd7;" horiz-adv-x="600" 
d="M57 100l154 153l-154 153l90 90l153 -154l153 154l90 -90l-154 -153l154 -153l-90 -90l-153 154l-153 -154z" />
    <glyph glyph-name="Oslash" unicode="&#xd8;" horiz-adv-x="574" 
d="M213 275l131 302q-17 39 -58 39q-48 0 -62 -52.5t-14 -206.5v-46q0 -25 1 -36h2zM79 -29l32 73q-44 42 -59.5 118.5t-15.5 194.5q0 75 5 126.5t20 101t42 79t73 47t111 17.5q70 0 114 -19l28 63l66 -29l-32 -73q47 -45 61 -119.5t14 -193.5q0 -50 -1.5 -83.5t-7 -76
t-15.5 -70.5t-28.5 -57t-45 -46t-65 -27.5t-88.5 -10.5q-73 0 -114 19l-28 -63zM361 438l-131 -302q15 -38 56 -38q49 0 63.5 52.5t14.5 206.5v45q0 27 -1 36h-2z" />
    <glyph glyph-name="Ugrave" unicode="&#xd9;" horiz-adv-x="556" 
d="M513 714v-478q0 -57 -9.5 -99t-34.5 -78t-72.5 -54.5t-118.5 -18.5t-118.5 18.5t-72.5 54.5t-34.5 78t-9.5 99v478h168v-527q0 -89 67 -89t67 89v527h168zM242 759l-100 142h156l50 -142h-106z" />
    <glyph glyph-name="Uacute" unicode="&#xda;" horiz-adv-x="556" 
d="M513 714v-478q0 -57 -9.5 -99t-34.5 -78t-72.5 -54.5t-118.5 -18.5t-118.5 18.5t-72.5 54.5t-34.5 78t-9.5 99v478h168v-527q0 -89 67 -89t67 89v527h168zM225 758l50 142h156l-100 -142h-106z" />
    <glyph glyph-name="Ucircumflex" unicode="&#xdb;" horiz-adv-x="556" 
d="M513 714v-478q0 -57 -9.5 -99t-34.5 -78t-72.5 -54.5t-118.5 -18.5t-118.5 18.5t-72.5 54.5t-34.5 78t-9.5 99v478h168v-527q0 -89 67 -89t67 89v527h168zM124 759l71 142h168l71 -142h-118l-37 81l-36 -81h-119z" />
    <glyph glyph-name="Udieresis" unicode="&#xdc;" horiz-adv-x="556" 
d="M513 714v-478q0 -57 -9.5 -99t-34.5 -78t-72.5 -54.5t-118.5 -18.5t-118.5 18.5t-72.5 54.5t-34.5 78t-9.5 99v478h168v-527q0 -89 67 -89t67 89v527h168zM305 765v130h124v-130h-124zM129 765v130h124v-130h-124z" />
    <glyph glyph-name="Yacute" unicode="&#xdd;" horiz-adv-x="536" 
d="M184 0v281l-181 433h186l80 -265h2l82 265h180l-181 -433v-281h-168zM218 759l50 142h156l-100 -142h-106z" />
    <glyph glyph-name="Thorn" unicode="&#xde;" horiz-adv-x="556" 
d="M220 462v-187h46q83 0 83 90q0 97 -86 97h-43zM52 0v714h168v-128h92q63 0 107 -20.5t65.5 -55.5t30 -69t8.5 -72q0 -218 -229 -218h-74v-151h-168z" />
    <glyph glyph-name="germandbls" unicode="&#xdf;" horiz-adv-x="537" 
d="M49 0v501q0 124 51.5 175.5t176.5 51.5q113 0 161 -46.5t48 -132.5q0 -117 -94 -144v-2q111 -9 111 -178q0 -91 -24 -143t-64.5 -70t-106.5 -18q-37 0 -59 6v108q14 -2 25 -2q38 0 52.5 28.5t14.5 95.5q0 64 -17 88.5t-58 24.5h-16v112h18q56 0 56 84q0 83 -58 83
q-55 0 -55 -86v-536h-162z" />
    <glyph glyph-name="agrave" unicode="&#xe0;" horiz-adv-x="500" 
d="M183 167q0 -69 47 -69q65 0 65 74q0 25 0.5 55.5t0.5 39.5q-27 -14 -54 -24t-34 -16q-25 -19 -25 -60zM186 375h-144q1 104 61 145q51 35 151 35q101 0 146.5 -37.5t45.5 -122.5v-278q0 -93 19 -117h-156q-7 19 -9 62h-2q-17 -36 -51 -56t-76 -20q-144 0 -144 165
q0 47 18 84t48 54q18 10 41.5 17.5t59 16t44.5 10.5q38 11 48 21.5t10 40.5q0 54 -51 54q-32 0 -45 -18t-14 -56zM208 599l-100 142h156l50 -142h-106z" />
    <glyph glyph-name="aacute" unicode="&#xe1;" horiz-adv-x="500" 
d="M183 167q0 -69 47 -69q65 0 65 74q0 25 0.5 55.5t0.5 39.5q-27 -14 -54 -24t-34 -16q-25 -19 -25 -60zM186 375h-144q1 104 61 145q51 35 151 35q101 0 146.5 -37.5t45.5 -122.5v-278q0 -93 19 -117h-156q-7 19 -9 62h-2q-17 -36 -51 -56t-76 -20q-144 0 -144 165
q0 47 18 84t48 54q18 10 41.5 17.5t59 16t44.5 10.5q38 11 48 21.5t10 40.5q0 54 -51 54q-32 0 -45 -18t-14 -56zM196 599l50 142h156l-100 -142h-106z" />
    <glyph glyph-name="acircumflex" unicode="&#xe2;" horiz-adv-x="500" 
d="M183 167q0 -69 47 -69q65 0 65 74q0 25 0.5 55.5t0.5 39.5q-27 -14 -54 -24t-34 -16q-25 -19 -25 -60zM186 375h-144q1 104 61 145q51 35 151 35q101 0 146.5 -37.5t45.5 -122.5v-278q0 -93 19 -117h-156q-7 19 -9 62h-2q-17 -36 -51 -56t-76 -20q-144 0 -144 165
q0 47 18 84t48 54q18 10 41.5 17.5t59 16t44.5 10.5q38 11 48 21.5t10 40.5q0 54 -51 54q-32 0 -45 -18t-14 -56zM95 599l71 142h168l71 -142h-118l-37 81l-36 -81h-119z" />
    <glyph glyph-name="atilde" unicode="&#xe3;" horiz-adv-x="500" 
d="M183 167q0 -69 47 -69q65 0 65 74q0 25 0.5 55.5t0.5 39.5q-27 -14 -54 -24t-34 -16q-25 -19 -25 -60zM186 375h-144q1 104 61 145q51 35 151 35q101 0 146.5 -37.5t45.5 -122.5v-278q0 -93 19 -117h-156q-7 19 -9 62h-2q-17 -36 -51 -56t-76 -20q-144 0 -144 165
q0 47 18 84t48 54q18 10 41.5 17.5t59 16t44.5 10.5q38 11 48 21.5t10 40.5q0 54 -51 54q-32 0 -45 -18t-14 -56zM333 738h80q-12 -136 -100 -136q-27 0 -67.5 15t-50.5 15q-21 0 -29 -30h-77q5 60 27 94q27 42 67 42q32 0 68 -15q43 -15 51 -15q17 0 22.5 7.5t8.5 22.5z
" />
    <glyph glyph-name="adieresis" unicode="&#xe4;" horiz-adv-x="500" 
d="M183 167q0 -69 47 -69q65 0 65 74q0 25 0.5 55.5t0.5 39.5q-27 -14 -54 -24t-34 -16q-25 -19 -25 -60zM186 375h-144q1 104 61 145q51 35 151 35q101 0 146.5 -37.5t45.5 -122.5v-278q0 -93 19 -117h-156q-7 19 -9 62h-2q-17 -36 -51 -56t-76 -20q-144 0 -144 165
q0 47 18 84t48 54q18 10 41.5 17.5t59 16t44.5 10.5q38 11 48 21.5t10 40.5q0 54 -51 54q-32 0 -45 -18t-14 -56zM276 605v130h124v-130h-124zM100 605v130h124v-130h-124z" />
    <glyph glyph-name="aring" unicode="&#xe5;" horiz-adv-x="500" 
d="M183 167q0 -69 47 -69q65 0 65 74q0 25 0.5 55.5t0.5 39.5q-27 -14 -54 -24t-34 -16q-25 -19 -25 -60zM186 375h-144q1 104 61 145q51 35 151 35q101 0 146.5 -37.5t45.5 -122.5v-278q0 -93 19 -117h-156q-7 19 -9 62h-2q-17 -36 -51 -56t-76 -20q-144 0 -144 165
q0 47 18 84t48 54q18 10 41.5 17.5t59 16t44.5 10.5q38 11 48 21.5t10 40.5q0 54 -51 54q-32 0 -45 -18t-14 -56zM187 694q0 -25 17.5 -42.5t42.5 -17.5t42.5 17.5t17.5 42.5t-17.5 42.5t-42.5 17.5t-42.5 -17.5t-17.5 -42.5zM126 694q0 51 35 84t86 33t86 -33t35 -84
t-35 -83t-86 -32t-86 32t-35 83z" />
    <glyph glyph-name="ae" unicode="&#xe6;" horiz-adv-x="741" 
d="M446 338h117q0 61 -11.5 89t-43.5 28q-37 0 -49.5 -28t-12.5 -89zM183 167q0 -69 47 -69q65 0 65 74q0 25 0.5 55.5t0.5 39.5q-27 -14 -54 -24t-34 -16q-25 -19 -25 -60zM186 375h-144q1 104 61 145q51 35 140 35q46 0 79 -12.5t44.5 -24.5t17.5 -24q41 61 143 61
q95 0 143.5 -63.5t48.5 -205.5v-42h-273v-33q0 -66 12.5 -95.5t46.5 -29.5q31 0 43.5 22.5t15.5 76.5h150q-4 -199 -210 -199q-74 0 -113 22.5t-56 66.5q-35 -89 -149 -89q-159 0 -159 165q0 47 18 84t48 54q18 10 41.5 17.5t59 16t44.5 10.5q38 11 48 21.5t10 40.5
q0 54 -51 54q-32 0 -45 -18t-14 -56z" />
    <glyph glyph-name="ccedilla" unicode="&#xe7;" horiz-adv-x="481" 
d="M128 -205l21 52q36 -15 73 -15q46 0 46 34q0 13 -13.5 22t-32.5 9q-11 0 -29 -6l-23 19l44 77q-53 4 -88 24q-61 36 -80 103t-19 176q0 126 48.5 195.5t171.5 69.5q120 0 167 -56t47 -162h-150q0 60 -14.5 86t-46.5 26q-37 0 -49 -43t-12 -136q0 -99 11.5 -138.5
t49.5 -39.5q35 0 47 26.5t14 101.5h150q-2 -126 -53 -180q-46 -47 -135 -53l-27 -47q9 4 26 4q44 0 67 -22.5t23 -54.5q0 -39 -31 -65t-89 -26q-66 0 -114 19z" />
    <glyph glyph-name="egrave" unicode="&#xe8;" horiz-adv-x="481" 
d="M189 338h117q0 61 -11.5 89t-43.5 28q-37 0 -49.5 -28t-12.5 -89zM462 244h-273v-33q0 -66 12.5 -95.5t46.5 -29.5q31 0 43.5 22.5t15.5 76.5h150q-4 -199 -210 -199q-43 0 -76.5 9t-56.5 23t-39.5 37.5t-25.5 47t-14 57.5t-6.5 62.5t-1.5 67.5q0 126 48.5 195.5
t171.5 69.5q49 0 85.5 -9.5t59.5 -31t37.5 -45.5t21.5 -63.5t9 -74t2 -87.5zM201 599l-100 142h156l50 -142h-106z" />
    <glyph glyph-name="eacute" unicode="&#xe9;" horiz-adv-x="481" 
d="M189 338h117q0 61 -11.5 89t-43.5 28q-37 0 -49.5 -28t-12.5 -89zM462 244h-273v-33q0 -66 12.5 -95.5t46.5 -29.5q31 0 43.5 22.5t15.5 76.5h150q-4 -199 -210 -199q-43 0 -76.5 9t-56.5 23t-39.5 37.5t-25.5 47t-14 57.5t-6.5 62.5t-1.5 67.5q0 126 48.5 195.5
t171.5 69.5q49 0 85.5 -9.5t59.5 -31t37.5 -45.5t21.5 -63.5t9 -74t2 -87.5zM195 599l50 142h156l-100 -142h-106z" />
    <glyph glyph-name="ecircumflex" unicode="&#xea;" horiz-adv-x="481" 
d="M189 338h117q0 61 -11.5 89t-43.5 28q-37 0 -49.5 -28t-12.5 -89zM462 244h-273v-33q0 -66 12.5 -95.5t46.5 -29.5q31 0 43.5 22.5t15.5 76.5h150q-4 -199 -210 -199q-43 0 -76.5 9t-56.5 23t-39.5 37.5t-25.5 47t-14 57.5t-6.5 62.5t-1.5 67.5q0 126 48.5 195.5
t171.5 69.5q49 0 85.5 -9.5t59.5 -31t37.5 -45.5t21.5 -63.5t9 -74t2 -87.5zM95 599l71 142h168l71 -142h-118l-37 81l-36 -81h-119z" />
    <glyph glyph-name="edieresis" unicode="&#xeb;" horiz-adv-x="481" 
d="M189 338h117q0 61 -11.5 89t-43.5 28q-37 0 -49.5 -28t-12.5 -89zM462 244h-273v-33q0 -66 12.5 -95.5t46.5 -29.5q31 0 43.5 22.5t15.5 76.5h150q-4 -199 -210 -199q-43 0 -76.5 9t-56.5 23t-39.5 37.5t-25.5 47t-14 57.5t-6.5 62.5t-1.5 67.5q0 126 48.5 195.5
t171.5 69.5q49 0 85.5 -9.5t59.5 -31t37.5 -45.5t21.5 -63.5t9 -74t2 -87.5zM275 605v130h124v-130h-124zM99 605v130h124v-130h-124z" />
    <glyph glyph-name="igrave" unicode="&#xec;" 
d="M49 0v541h162v-541h-162zM104 599l-100 142h156l50 -142h-106z" />
    <glyph glyph-name="iacute" unicode="&#xed;" 
d="M49 0v541h162v-541h-162zM50 599l50 142h156l-100 -142h-106z" />
    <glyph glyph-name="icircumflex" unicode="&#xee;" 
d="M49 0v541h162v-541h-162zM-23 599l71 142h168l71 -142h-118l-37 81l-36 -81h-119z" />
    <glyph glyph-name="idieresis" unicode="&#xef;" 
d="M49 0v541h162v-541h-162zM156 605v130h124v-130h-124zM-20 605v130h124v-130h-124z" />
    <glyph glyph-name="eth" unicode="&#xf0;" horiz-adv-x="500" 
d="M101 568l-50 48l81 49q-26 26 -58 53l105 78q13 -12 35.5 -33t32.5 -30l76 46l54 -47l-81 -47q93 -95 135 -188.5t42 -239.5q0 -62 -9 -107t-32 -84.5t-68.5 -59.5t-113.5 -20q-58 0 -99 14t-65 36t-37.5 58.5t-17.5 72.5t-4 88q0 271 173 271q39 0 76 -22l2 2
q-39 52 -97 110zM311 256q0 95 -12 129.5t-48 34.5q-35 0 -48.5 -36.5t-13.5 -127.5t13.5 -127.5t48.5 -36.5q36 0 48 34.5t12 129.5z" />
    <glyph glyph-name="ntilde" unicode="&#xf1;" horiz-adv-x="519" 
d="M45 0v541h156v-64h2q17 36 51.5 57t78.5 21q141 0 141 -150v-405h-162v369q0 62 -47 62q-25 0 -41.5 -19.5t-16.5 -57.5v-354h-162zM337 738h80q-12 -136 -100 -136q-27 0 -67.5 15t-50.5 15q-21 0 -29 -30h-77q5 60 27 94q27 42 67 42q32 0 68 -15q43 -15 51 -15
q17 0 22.5 7.5t8.5 22.5z" />
    <glyph glyph-name="ograve" unicode="&#xf2;" horiz-adv-x="500" 
d="M250 -14q-58 0 -99 14.5t-65 38t-37.5 62t-17.5 76.5t-4 92q0 66 9 114t32 89t68.5 62t113.5 21q58 0 99 -14.5t65 -38t37.5 -61.5t17.5 -76.5t4 -92.5q0 -66 -9 -114t-32 -89t-68.5 -62t-113.5 -21zM311 270q0 104 -12 141.5t-48 37.5t-49 -39t-13 -139t13 -139.5
t49 -39.5t48 37.5t12 140.5zM209 599l-100 142h156l50 -142h-106z" />
    <glyph glyph-name="oacute" unicode="&#xf3;" horiz-adv-x="500" 
d="M250 -14q-58 0 -99 14.5t-65 38t-37.5 62t-17.5 76.5t-4 92q0 66 9 114t32 89t68.5 62t113.5 21q58 0 99 -14.5t65 -38t37.5 -61.5t17.5 -76.5t4 -92.5q0 -66 -9 -114t-32 -89t-68.5 -62t-113.5 -21zM311 270q0 104 -12 141.5t-48 37.5t-49 -39t-13 -139t13 -139.5
t49 -39.5t48 37.5t12 140.5zM195 599l50 142h156l-100 -142h-106z" />
    <glyph glyph-name="ocircumflex" unicode="&#xf4;" horiz-adv-x="500" 
d="M250 -14q-58 0 -99 14.5t-65 38t-37.5 62t-17.5 76.5t-4 92q0 66 9 114t32 89t68.5 62t113.5 21q58 0 99 -14.5t65 -38t37.5 -61.5t17.5 -76.5t4 -92.5q0 -66 -9 -114t-32 -89t-68.5 -62t-113.5 -21zM311 270q0 104 -12 141.5t-48 37.5t-49 -39t-13 -139t13 -139.5
t49 -39.5t48 37.5t12 140.5zM95 599l71 142h168l71 -142h-118l-37 81l-36 -81h-119z" />
    <glyph glyph-name="otilde" unicode="&#xf5;" horiz-adv-x="500" 
d="M250 -14q-58 0 -99 14.5t-65 38t-37.5 62t-17.5 76.5t-4 92q0 66 9 114t32 89t68.5 62t113.5 21q58 0 99 -14.5t65 -38t37.5 -61.5t17.5 -76.5t4 -92.5q0 -66 -9 -114t-32 -89t-68.5 -62t-113.5 -21zM311 270q0 104 -12 141.5t-48 37.5t-49 -39t-13 -139t13 -139.5
t49 -39.5t48 37.5t12 140.5zM333 738h80q-12 -136 -100 -136q-27 0 -67.5 15t-50.5 15q-21 0 -29 -30h-77q5 60 27 94q27 42 67 42q32 0 68 -15q43 -15 51 -15q17 0 22.5 7.5t8.5 22.5z" />
    <glyph glyph-name="odieresis" unicode="&#xf6;" horiz-adv-x="500" 
d="M250 -14q-58 0 -99 14.5t-65 38t-37.5 62t-17.5 76.5t-4 92q0 66 9 114t32 89t68.5 62t113.5 21q58 0 99 -14.5t65 -38t37.5 -61.5t17.5 -76.5t4 -92.5q0 -66 -9 -114t-32 -89t-68.5 -62t-113.5 -21zM311 270q0 104 -12 141.5t-48 37.5t-49 -39t-13 -139t13 -139.5
t49 -39.5t48 37.5t12 140.5zM277 605v130h124v-130h-124zM101 605v130h124v-130h-124z" />
    <glyph glyph-name="divide" unicode="&#xf7;" horiz-adv-x="600" 
d="M203 465q0 41 28 69t69 28t69 -28t28 -69t-28 -69t-69 -28t-69 28t-28 69zM203 41q0 41 28 69t69 28t69 -28t28 -69t-28 -69t-69 -28t-69 28t-28 69zM47 188v130h506v-130h-506z" />
    <glyph glyph-name="oslash" unicode="&#xf8;" horiz-adv-x="500" 
d="M191 233l104 186q-12 30 -45 30q-37 0 -49 -43t-12 -135v-38h2zM309 307l-104 -185q12 -30 45 -30q37 0 49 43t12 135v37h-2zM42 -29l41 72q-33 34 -44.5 89t-11.5 139q0 38 2 65t8.5 63t21.5 61t38.5 48.5t62.5 35t90 11.5q72 0 111 -19l39 69l58 -35l-40 -72
q33 -35 44 -89.5t11 -138.5q0 -38 -2 -65t-8.5 -63t-21.5 -61t-38.5 -48.5t-62.5 -35t-90 -11.5q-72 0 -111 19l-39 -69z" />
    <glyph glyph-name="ugrave" unicode="&#xf9;" horiz-adv-x="519" 
d="M474 541v-541h-156v64h-2q-17 -36 -51.5 -57t-78.5 -21q-141 0 -141 150v405h162v-369q0 -62 47 -62q25 0 41.5 19.5t16.5 57.5v354h162zM226 599l-100 142h156l50 -142h-106z" />
    <glyph glyph-name="uacute" unicode="&#xfa;" horiz-adv-x="519" 
d="M474 541v-541h-156v64h-2q-17 -36 -51.5 -57t-78.5 -21q-141 0 -141 150v405h162v-369q0 -62 47 -62q25 0 41.5 19.5t16.5 57.5v354h162zM204 599l50 142h156l-100 -142h-106z" />
    <glyph glyph-name="ucircumflex" unicode="&#xfb;" horiz-adv-x="519" 
d="M474 541v-541h-156v64h-2q-17 -36 -51.5 -57t-78.5 -21q-141 0 -141 150v405h162v-369q0 -62 47 -62q25 0 41.5 19.5t16.5 57.5v354h162zM104 599l71 142h168l71 -142h-118l-37 81l-36 -81h-119z" />
    <glyph glyph-name="udieresis" unicode="&#xfc;" horiz-adv-x="519" 
d="M474 541v-541h-156v64h-2q-17 -36 -51.5 -57t-78.5 -21q-141 0 -141 150v405h162v-369q0 -62 47 -62q25 0 41.5 19.5t16.5 57.5v354h162zM285 605v130h124v-130h-124zM109 605v130h124v-130h-124z" />
    <glyph glyph-name="yacute" unicode="&#xfd;" horiz-adv-x="481" 
d="M163 -4l-153 545h168l66 -379h2l63 379h162l-145 -545q-28 -104 -67.5 -138t-133.5 -34h-37q-11 0 -33 2v114q17 -4 40 -4q57 0 68 60zM189 599l50 142h156l-100 -142h-106z" />
    <glyph glyph-name="thorn" unicode="&#xfe;" horiz-adv-x="519" 
d="M204 274q0 -42 1.5 -68t7 -52t18 -38t32.5 -12q21 0 34 10.5t19 35t7.5 49t1.5 68.5q0 40 -1.5 64.5t-7.5 52t-19.5 40.5t-34.5 13q-34 0 -46 -39t-12 -124zM45 -176v890h162v-239h2q9 32 37.5 56t73.5 24q83 0 125 -66t42 -214q0 -69 -6 -117t-22.5 -89.5t-48.5 -62
t-80 -20.5q-88 0 -121 73h-2v-235h-162z" />
    <glyph glyph-name="ydieresis" unicode="&#xff;" horiz-adv-x="481" 
d="M163 -4l-153 545h168l66 -379h2l63 379h162l-145 -545q-28 -104 -67.5 -138t-133.5 -34h-37q-11 0 -33 2v114q17 -4 40 -4q57 0 68 60zM271 605v130h124v-130h-124zM95 605v130h124v-130h-124z" />
    <glyph glyph-name="Amacron" unicode="&#x100;" horiz-adv-x="574" 
d="M2 0l182 714h210l178 -714h-174l-26 136h-171l-25 -136h-174zM347 266l-61 318h-2l-59 -318h122zM131 786v88h310v-88h-310z" />
    <glyph glyph-name="amacron" unicode="&#x101;" horiz-adv-x="500" 
d="M183 167q0 -69 47 -69q65 0 65 74q0 25 0.5 55.5t0.5 39.5q-27 -14 -54 -24t-34 -16q-25 -19 -25 -60zM186 375h-144q1 104 61 145q51 35 151 35q101 0 146.5 -37.5t45.5 -122.5v-278q0 -93 19 -117h-156q-7 19 -9 62h-2q-17 -36 -51 -56t-76 -20q-144 0 -144 165
q0 47 18 84t48 54q18 10 41.5 17.5t59 16t44.5 10.5q38 11 48 21.5t10 40.5q0 54 -51 54q-32 0 -45 -18t-14 -56zM96 626v88h310v-88h-310z" />
    <glyph glyph-name="Abreve" unicode="&#x102;" horiz-adv-x="574" 
d="M2 0l182 714h210l178 -714h-174l-26 136h-171l-25 -136h-174zM347 266l-61 318h-2l-59 -318h122zM285 837q26 0 47.5 18t25.5 46h72q0 -63 -36.5 -102.5t-108.5 -39.5t-108.5 39.5t-36.5 102.5h72q4 -28 25.5 -46t47.5 -18z" />
    <glyph glyph-name="abreve" unicode="&#x103;" horiz-adv-x="500" 
d="M183 167q0 -69 47 -69q65 0 65 74q0 25 0.5 55.5t0.5 39.5q-27 -14 -54 -24t-34 -16q-25 -19 -25 -60zM186 375h-144q1 104 61 145q51 35 151 35q101 0 146.5 -37.5t45.5 -122.5v-278q0 -93 19 -117h-156q-7 19 -9 62h-2q-17 -36 -51 -56t-76 -20q-144 0 -144 165
q0 47 18 84t48 54q18 10 41.5 17.5t59 16t44.5 10.5q38 11 48 21.5t10 40.5q0 54 -51 54q-32 0 -45 -18t-14 -56zM247 677q26 0 47.5 18t25.5 46h72q0 -63 -36.5 -102.5t-108.5 -39.5t-108.5 39.5t-36.5 102.5h72q4 -28 25.5 -46t47.5 -18z" />
    <glyph glyph-name="Aogonek" unicode="&#x104;" horiz-adv-x="574" 
d="M486 -152l23 -45q-49 -27 -116 -27q-51 0 -79 23.5t-28 65.5q0 74 112 135l-26 136h-171l-25 -136h-174l182 714h210l178 -714h-100q-92 -71 -92 -121q0 -47 50 -47q30 0 56 16zM347 266l-61 318h-2l-59 -318h122z" />
    <glyph glyph-name="aogonek" unicode="&#x105;" horiz-adv-x="500" 
d="M186 375h-144q1 104 61 145q51 35 151 35q101 0 146.5 -37.5t45.5 -122.5v-278q0 -93 19 -117h-90q-77 -71 -77 -119q0 -49 45 -49q30 0 55 16l20 -45q-42 -27 -108 -27q-46 0 -71 23.5t-25 65.5q0 65 95 135q-7 19 -9 62h-2q-17 -36 -51 -56t-76 -20q-144 0 -144 165
q0 47 18 84t48 54q18 10 41.5 17.5t59 16t44.5 10.5q38 11 48 21.5t10 40.5q0 54 -51 54q-32 0 -45 -18t-14 -56zM183 167q0 -69 47 -69q65 0 65 74q0 25 0.5 55.5t0.5 39.5q-27 -14 -54 -24t-34 -16q-25 -19 -25 -60z" />
    <glyph glyph-name="Cacute" unicode="&#x106;" horiz-adv-x="537" 
d="M513 466h-162q0 82 -14 116t-54 34q-48 0 -60.5 -50.5t-12.5 -200.5q0 -166 13 -216.5t64 -50.5q42 0 56 44t14 138h162v-25q0 -63 -10.5 -108t-36.5 -83.5t-77 -58t-127 -19.5q-63 0 -106.5 19.5t-68 49.5t-37.5 83t-16.5 101t-3.5 123q0 47 1 78.5t6.5 73.5t15.5 69.5
t28 57.5t44 47t64.5 28.5t88.5 11.5q114 0 171.5 -54.5t57.5 -177.5v-30zM228 759l50 142h156l-100 -142h-106z" />
    <glyph glyph-name="cacute" unicode="&#x107;" horiz-adv-x="481" 
d="M461 337h-150q0 60 -14.5 86t-46.5 26q-37 0 -49 -43t-12 -136q0 -99 11.5 -138.5t49.5 -39.5q35 0 47 26.5t14 101.5h150q-1 -124 -52 -179t-162 -55q-43 0 -76.5 9t-56.5 23t-39.5 37.5t-25.5 47t-14 57.5t-6.5 62.5t-1.5 67.5q0 126 48.5 195.5t171.5 69.5
q120 0 167 -56t47 -162zM193 599l50 142h156l-100 -142h-106z" />
    <glyph glyph-name="Ccircumflex" unicode="&#x108;" horiz-adv-x="537" 
d="M513 466h-162q0 82 -14 116t-54 34q-48 0 -60.5 -50.5t-12.5 -200.5q0 -166 13 -216.5t64 -50.5q42 0 56 44t14 138h162v-25q0 -63 -10.5 -108t-36.5 -83.5t-77 -58t-127 -19.5q-63 0 -106.5 19.5t-68 49.5t-37.5 83t-16.5 101t-3.5 123q0 47 1 78.5t6.5 73.5t15.5 69.5
t28 57.5t44 47t64.5 28.5t88.5 11.5q114 0 171.5 -54.5t57.5 -177.5v-30zM128 759l71 142h168l71 -142h-118l-37 81l-36 -81h-119z" />
    <glyph glyph-name="ccircumflex" unicode="&#x109;" horiz-adv-x="481" 
d="M461 337h-150q0 60 -14.5 86t-46.5 26q-37 0 -49 -43t-12 -136q0 -99 11.5 -138.5t49.5 -39.5q35 0 47 26.5t14 101.5h150q-1 -124 -52 -179t-162 -55q-43 0 -76.5 9t-56.5 23t-39.5 37.5t-25.5 47t-14 57.5t-6.5 62.5t-1.5 67.5q0 126 48.5 195.5t171.5 69.5
q120 0 167 -56t47 -162zM95 599l71 142h168l71 -142h-118l-37 81l-36 -81h-119z" />
    <glyph glyph-name="Cdotaccent" unicode="&#x10a;" horiz-adv-x="537" 
d="M513 466h-162q0 82 -14 116t-54 34q-48 0 -60.5 -50.5t-12.5 -200.5q0 -166 13 -216.5t64 -50.5q42 0 56 44t14 138h162v-25q0 -63 -10.5 -108t-36.5 -83.5t-77 -58t-127 -19.5q-63 0 -106.5 19.5t-68 49.5t-37.5 83t-16.5 101t-3.5 123q0 47 1 78.5t6.5 73.5t15.5 69.5
t28 57.5t44 47t64.5 28.5t88.5 11.5q114 0 171.5 -54.5t57.5 -177.5v-30zM219 895h124v-130h-124v130z" />
    <glyph glyph-name="cdotaccent" unicode="&#x10b;" horiz-adv-x="481" 
d="M461 337h-150q0 60 -14.5 86t-46.5 26q-37 0 -49 -43t-12 -136q0 -99 11.5 -138.5t49.5 -39.5q35 0 47 26.5t14 101.5h150q-1 -124 -52 -179t-162 -55q-43 0 -76.5 9t-56.5 23t-39.5 37.5t-25.5 47t-14 57.5t-6.5 62.5t-1.5 67.5q0 126 48.5 195.5t171.5 69.5
q120 0 167 -56t47 -162zM189 735h124v-130h-124v130z" />
    <glyph glyph-name="Ccaron" unicode="&#x10c;" horiz-adv-x="537" 
d="M513 466h-162q0 82 -14 116t-54 34q-48 0 -60.5 -50.5t-12.5 -200.5q0 -166 13 -216.5t64 -50.5q42 0 56 44t14 138h162v-25q0 -63 -10.5 -108t-36.5 -83.5t-77 -58t-127 -19.5q-63 0 -106.5 19.5t-68 49.5t-37.5 83t-16.5 101t-3.5 123q0 47 1 78.5t6.5 73.5t15.5 69.5
t28 57.5t44 47t64.5 28.5t88.5 11.5q114 0 171.5 -54.5t57.5 -177.5v-30zM201 759l-71 142h119l36 -81l37 81h118l-71 -142h-168z" />
    <glyph glyph-name="ccaron" unicode="&#x10d;" horiz-adv-x="481" 
d="M461 337h-150q0 60 -14.5 86t-46.5 26q-37 0 -49 -43t-12 -136q0 -99 11.5 -138.5t49.5 -39.5q35 0 47 26.5t14 101.5h150q-1 -124 -52 -179t-162 -55q-43 0 -76.5 9t-56.5 23t-39.5 37.5t-25.5 47t-14 57.5t-6.5 62.5t-1.5 67.5q0 126 48.5 195.5t171.5 69.5
q120 0 167 -56t47 -162zM168 599l-71 142h119l36 -81l37 81h118l-71 -142h-168z" />
    <glyph glyph-name="Dcaron" unicode="&#x10e;" horiz-adv-x="574" 
d="M220 590v-466h45q42 0 62.5 16.5t31.5 69.5t11 159q0 134 -19 177.5t-84 43.5h-47zM52 0v714h249q126 0 181.5 -75.5t55.5 -258.5q0 -84 -5 -139.5t-20.5 -105t-43.5 -77t-73.5 -43t-111.5 -15.5h-232zM176 759l-71 142h119l36 -81l37 81h118l-71 -142h-168z" />
    <glyph glyph-name="dcaron" unicode="&#x10f;" horiz-adv-x="623" 
d="M315 267q0 42 -1.5 68t-7 52t-18 38t-32.5 12q-21 0 -34 -10.5t-19 -35t-7.5 -49t-1.5 -68.5q0 -40 1.5 -64.5t7.5 -52t19.5 -40.5t34.5 -13q34 0 46 39t12 124zM318 0v66h-2q-29 -80 -117 -80q-83 0 -125 66t-42 214q0 69 6 117t22.5 89.5t48.5 62t80 20.5q86 0 121 -73
h2v232h162v-714h-156zM510 572l26 142h131l-59 -142h-98z" />
    <glyph glyph-name="Dcroat" unicode="&#x110;" horiz-adv-x="574" 
d="M52 0v317h-52v112h52v285h245q126 0 181.5 -75t59.5 -259q-2 -85 -7.5 -140t-21.5 -105t-44 -77t-73.5 -42.5t-111.5 -15.5h-228zM220 317v-193h45q42 0 62.5 16.5t31.5 69.5t11 159q0 134 -19 177.5t-84 43.5h-47v-161h62v-112h-62z" />
    <glyph glyph-name="dcroat" unicode="&#x111;" horiz-adv-x="558" 
d="M318 0v66h-2q-29 -80 -117 -80q-83 0 -125 66t-42 214q0 69 6 117t22.5 89.5t48.5 62t80 20.5q86 0 121 -73h2v92h-66v68h66v72h162v-72h90v-68h-90v-574h-156zM315 267q0 42 -1.5 68t-7 52t-18 38t-32.5 12q-21 0 -34 -10.5t-19 -35t-7.5 -49t-1.5 -68.5
q0 -40 1.5 -64.5t7.5 -52t19.5 -40.5t34.5 -13q34 0 46 39t12 124z" />
    <glyph glyph-name="Emacron" unicode="&#x112;" horiz-adv-x="500" 
d="M52 0v714h413v-136h-245v-143h230v-136h-230v-163h256v-136h-424zM105 786v88h310v-88h-310z" />
    <glyph glyph-name="emacron" unicode="&#x113;" horiz-adv-x="481" 
d="M189 338h117q0 61 -11.5 89t-43.5 28q-37 0 -49.5 -28t-12.5 -89zM462 244h-273v-33q0 -66 12.5 -95.5t46.5 -29.5q31 0 43.5 22.5t15.5 76.5h150q-4 -199 -210 -199q-43 0 -76.5 9t-56.5 23t-39.5 37.5t-25.5 47t-14 57.5t-6.5 62.5t-1.5 67.5q0 126 48.5 195.5
t171.5 69.5q49 0 85.5 -9.5t59.5 -31t37.5 -45.5t21.5 -63.5t9 -74t2 -87.5zM95 626v88h310v-88h-310z" />
    <glyph glyph-name="Ebreve" unicode="&#x114;" horiz-adv-x="500" 
d="M52 0v714h413v-136h-245v-143h230v-136h-230v-163h256v-136h-424zM256 837q26 0 47.5 18t25.5 46h72q0 -63 -36.5 -102.5t-108.5 -39.5t-108.5 39.5t-36.5 102.5h72q4 -28 25.5 -46t47.5 -18z" />
    <glyph glyph-name="ebreve" unicode="&#x115;" horiz-adv-x="481" 
d="M189 338h117q0 61 -11.5 89t-43.5 28q-37 0 -49.5 -28t-12.5 -89zM462 244h-273v-33q0 -66 12.5 -95.5t46.5 -29.5q31 0 43.5 22.5t15.5 76.5h150q-4 -199 -210 -199q-43 0 -76.5 9t-56.5 23t-39.5 37.5t-25.5 47t-14 57.5t-6.5 62.5t-1.5 67.5q0 126 48.5 195.5
t171.5 69.5q49 0 85.5 -9.5t59.5 -31t37.5 -45.5t21.5 -63.5t9 -74t2 -87.5zM252 677q26 0 47.5 18t25.5 46h72q0 -63 -36.5 -102.5t-108.5 -39.5t-108.5 39.5t-36.5 102.5h72q4 -28 25.5 -46t47.5 -18z" />
    <glyph glyph-name="Edotaccent" unicode="&#x116;" horiz-adv-x="500" 
d="M52 0v714h413v-136h-245v-143h230v-136h-230v-163h256v-136h-424zM196 895h124v-130h-124v130z" />
    <glyph glyph-name="edotaccent" unicode="&#x117;" horiz-adv-x="481" 
d="M189 338h117q0 61 -11.5 89t-43.5 28q-37 0 -49.5 -28t-12.5 -89zM462 244h-273v-33q0 -66 12.5 -95.5t46.5 -29.5q31 0 43.5 22.5t15.5 76.5h150q-4 -199 -210 -199q-43 0 -76.5 9t-56.5 23t-39.5 37.5t-25.5 47t-14 57.5t-6.5 62.5t-1.5 67.5q0 126 48.5 195.5
t171.5 69.5q49 0 85.5 -9.5t59.5 -31t37.5 -45.5t21.5 -63.5t9 -74t2 -87.5zM187 735h124v-130h-124v130z" />
    <glyph glyph-name="Eogonek" unicode="&#x118;" horiz-adv-x="500" 
d="M452 -152l23 -45q-49 -27 -116 -27q-51 0 -79 23.5t-28 65.5q0 74 112 135h-312v714h413v-136h-245v-143h230v-136h-230v-163h256v-136h-38q-92 -71 -92 -121q0 -47 50 -47q30 0 56 16z" />
    <glyph glyph-name="eogonek" unicode="&#x119;" horiz-adv-x="481" 
d="M331 -152l23 -45q-49 -27 -116 -27q-51 0 -79 23.5t-28 65.5q0 39 32 74q24 27 57 48q-58 4 -94 24q-61 36 -80 103t-19 176q0 126 48.5 195.5t171.5 69.5q49 0 85.5 -9.5t59.5 -31t37.5 -45.5t21.5 -63.5t9 -74t2 -87.5h-273v-33q0 -66 12.5 -95.5t46.5 -29.5
q31 0 43.5 22.5t15.5 76.5h150q-1 -100 -56 -150q-36 -33 -96 -44q-80 -65 -80 -112t50 -47q30 0 56 16zM189 338h117q0 61 -11.5 89t-43.5 28q-37 0 -49.5 -28t-12.5 -89z" />
    <glyph glyph-name="Ecaron" unicode="&#x11a;" horiz-adv-x="500" 
d="M52 0v714h413v-136h-245v-143h230v-136h-230v-163h256v-136h-424zM178 759l-71 142h119l36 -81l37 81h118l-71 -142h-168z" />
    <glyph glyph-name="ecaron" unicode="&#x11b;" horiz-adv-x="481" 
d="M189 338h117q0 61 -11.5 89t-43.5 28q-37 0 -49.5 -28t-12.5 -89zM462 244h-273v-33q0 -66 12.5 -95.5t46.5 -29.5q31 0 43.5 22.5t15.5 76.5h150q-4 -199 -210 -199q-43 0 -76.5 9t-56.5 23t-39.5 37.5t-25.5 47t-14 57.5t-6.5 62.5t-1.5 67.5q0 126 48.5 195.5
t171.5 69.5q49 0 85.5 -9.5t59.5 -31t37.5 -45.5t21.5 -63.5t9 -74t2 -87.5zM165 599l-71 142h119l36 -81l37 81h118l-71 -142h-168z" />
    <glyph glyph-name="Gcircumflex" unicode="&#x11c;" horiz-adv-x="556" 
d="M516 497h-162q0 119 -67 119q-49 0 -63 -54.5t-14 -205.5q0 -153 14.5 -205.5t62.5 -52.5q42 0 59.5 36.5t17.5 113.5v23h-79v112h235v-383h-115l-4 68h-2q-35 -82 -154 -82q-53 0 -90.5 16.5t-60.5 44t-36 74.5t-17.5 98t-4.5 123q0 57 1.5 95.5t7 83t16.5 72.5t29.5 56
t45 44t65.5 25.5t89 9.5q62 0 106.5 -17t67 -40t35 -58.5t15 -59.5t2.5 -56zM134 759l71 142h168l71 -142h-118l-37 81l-36 -81h-119z" />
    <glyph glyph-name="gcircumflex" unicode="&#x11d;" horiz-adv-x="519" 
d="M198 280q0 -84 13 -116.5t46 -32.5q34 0 47.5 32.5t13.5 121.5q0 78 -12.5 112t-46.5 34q-37 0 -49 -37.5t-12 -113.5zM324 468v73h150v-522q0 -99 -51.5 -151t-173.5 -52q-203 0 -203 150h150q4 -22 17 -33q17 -11 40 -11q39 0 52 29.5t13 108.5v33h-2q-29 -80 -128 -80
q-152 0 -152 265q0 44 3 78.5t12.5 73.5t26 65t46.5 43t70 17q94 0 128 -87h2zM121 599l71 142h168l71 -142h-118l-37 81l-36 -81h-119z" />
    <glyph glyph-name="Gbreve" unicode="&#x11e;" horiz-adv-x="556" 
d="M516 497h-162q0 119 -67 119q-49 0 -63 -54.5t-14 -205.5q0 -153 14.5 -205.5t62.5 -52.5q42 0 59.5 36.5t17.5 113.5v23h-79v112h235v-383h-115l-4 68h-2q-35 -82 -154 -82q-53 0 -90.5 16.5t-60.5 44t-36 74.5t-17.5 98t-4.5 123q0 57 1.5 95.5t7 83t16.5 72.5t29.5 56
t45 44t65.5 25.5t89 9.5q62 0 106.5 -17t67 -40t35 -58.5t15 -59.5t2.5 -56zM283 837q26 0 47.5 18t25.5 46h72q0 -63 -36.5 -102.5t-108.5 -39.5t-108.5 39.5t-36.5 102.5h72q4 -28 25.5 -46t47.5 -18z" />
    <glyph glyph-name="gbreve" unicode="&#x11f;" horiz-adv-x="519" 
d="M198 280q0 -84 13 -116.5t46 -32.5q34 0 47.5 32.5t13.5 121.5q0 78 -12.5 112t-46.5 34q-37 0 -49 -37.5t-12 -113.5zM324 468v73h150v-522q0 -99 -51.5 -151t-173.5 -52q-203 0 -203 150h150q4 -22 17 -33q17 -11 40 -11q39 0 52 29.5t13 108.5v33h-2q-29 -80 -128 -80
q-152 0 -152 265q0 44 3 78.5t12.5 73.5t26 65t46.5 43t70 17q94 0 128 -87h2zM273 677q26 0 47.5 18t25.5 46h72q0 -63 -36.5 -102.5t-108.5 -39.5t-108.5 39.5t-36.5 102.5h72q4 -28 25.5 -46t47.5 -18z" />
    <glyph glyph-name="Gdotaccent" unicode="&#x120;" horiz-adv-x="556" 
d="M516 497h-162q0 119 -67 119q-49 0 -63 -54.5t-14 -205.5q0 -153 14.5 -205.5t62.5 -52.5q42 0 59.5 36.5t17.5 113.5v23h-79v112h235v-383h-115l-4 68h-2q-35 -82 -154 -82q-53 0 -90.5 16.5t-60.5 44t-36 74.5t-17.5 98t-4.5 123q0 57 1.5 95.5t7 83t16.5 72.5t29.5 56
t45 44t65.5 25.5t89 9.5q62 0 106.5 -17t67 -40t35 -58.5t15 -59.5t2.5 -56zM226 895h124v-130h-124v130z" />
    <glyph glyph-name="gdotaccent" unicode="&#x121;" horiz-adv-x="519" 
d="M198 280q0 -84 13 -116.5t46 -32.5q34 0 47.5 32.5t13.5 121.5q0 78 -12.5 112t-46.5 34q-37 0 -49 -37.5t-12 -113.5zM324 468v73h150v-522q0 -99 -51.5 -151t-173.5 -52q-203 0 -203 150h150q4 -22 17 -33q17 -11 40 -11q39 0 52 29.5t13 108.5v33h-2q-29 -80 -128 -80
q-152 0 -152 265q0 44 3 78.5t12.5 73.5t26 65t46.5 43t70 17q94 0 128 -87h2zM206 735h124v-130h-124v130z" />
    <glyph glyph-name="Gcommaaccent" unicode="&#x122;" horiz-adv-x="556" 
d="M516 497h-162q0 119 -67 119q-49 0 -63 -54.5t-14 -205.5q0 -153 14.5 -205.5t62.5 -52.5q42 0 59.5 36.5t17.5 113.5v23h-79v112h235v-383h-115l-4 68h-2q-35 -82 -154 -82q-53 0 -90.5 16.5t-60.5 44t-36 74.5t-17.5 98t-4.5 123q0 57 1.5 95.5t7 83t16.5 72.5t29.5 56
t45 44t65.5 25.5t89 9.5q62 0 106.5 -17t67 -40t35 -58.5t15 -59.5t2.5 -56zM212 -154v104h134v-76q-3 -54 -31 -75t-86 -23v40q25 4 33.5 10.5t10.5 19.5h-61z" />
    <glyph glyph-name="gcommaaccent" unicode="&#x123;" horiz-adv-x="519" 
d="M198 280q0 -84 13 -116.5t46 -32.5q34 0 47.5 32.5t13.5 121.5q0 78 -12.5 112t-46.5 34q-37 0 -49 -37.5t-12 -113.5zM324 468v73h150v-522q0 -99 -51.5 -151t-173.5 -52q-203 0 -203 150h150q4 -22 17 -33q17 -11 40 -11q39 0 52 29.5t13 108.5v33h-2q-29 -80 -128 -80
q-152 0 -152 265q0 44 3 78.5t12.5 73.5t26 65t46.5 43t70 17q94 0 128 -87h2zM345 714v-104h-134v76q3 54 31 75t86 23v-40q-25 -4 -33.5 -10.5t-10.5 -19.5h61z" />
    <glyph glyph-name="Hcircumflex" unicode="&#x124;" horiz-adv-x="574" 
d="M52 0v714h168v-267h134v267h168v-714h-168v305h-134v-305h-168zM131 759l71 142h168l71 -142h-118l-37 81l-36 -81h-119z" />
    <glyph glyph-name="hcircumflex" unicode="&#x125;" horiz-adv-x="519" 
d="M45 0v714h162v-232h2q37 73 124 73q141 0 141 -150v-405h-162v369q0 62 -47 62q-25 0 -41.5 -19.5t-16.5 -57.5v-354h-162zM104 759l71 142h168l71 -142h-118l-37 81l-36 -81h-119z" />
    <glyph glyph-name="Hbar" unicode="&#x126;" horiz-adv-x="574" 
d="M52 0v714h168v-139h134v139h168v-714h-168v284h-134v-284h-168zM220 416h134v91h-134v-91z" />
    <glyph glyph-name="hbar" unicode="&#x127;" horiz-adv-x="559" 
d="M-10 579v68h95v67h162v-67h101v-68h-101v-97h2q37 73 124 73q141 0 141 -150v-405h-162v369q0 62 -47 62q-25 0 -41.5 -19.5t-16.5 -57.5v-354h-162v579h-95z" />
    <glyph glyph-name="Itilde" unicode="&#x128;" horiz-adv-x="278" 
d="M55 0v714h168v-714h-168zM222 898h80q-12 -136 -100 -136q-27 0 -67.5 15t-50.5 15q-21 0 -29 -30h-77q5 60 27 94q27 42 67 42q32 0 68 -15q43 -15 51 -15q17 0 22.5 7.5t8.5 22.5z" />
    <glyph glyph-name="itilde" unicode="&#x129;" 
d="M49 0v541h162v-541h-162zM215 738h80q-12 -136 -100 -136q-27 0 -67.5 15t-50.5 15q-21 0 -29 -30h-77q5 60 27 94q27 42 67 42q32 0 68 -15q43 -15 51 -15q17 0 22.5 7.5t8.5 22.5z" />
    <glyph glyph-name="Imacron" unicode="&#x12a;" horiz-adv-x="278" 
d="M55 0v714h168v-714h-168zM-16 786v88h310v-88h-310z" />
    <glyph glyph-name="imacron" unicode="&#x12b;" 
d="M49 0v541h162v-541h-162zM-24 626v88h310v-88h-310z" />
    <glyph glyph-name="Iogonek" unicode="&#x12e;" horiz-adv-x="278" 
d="M237 -152l23 -45q-49 -27 -116 -27q-51 0 -79 23.5t-28 65.5q0 74 112 135h-94v714h168v-714q-92 -71 -92 -121q0 -47 50 -47q30 0 56 16z" />
    <glyph glyph-name="iogonek" unicode="&#x12f;" 
d="M199 -152l23 -45q-49 -27 -116 -27q-51 0 -79 23.5t-28 65.5q0 74 112 135h-62v541h162v-541h-26q-92 -71 -92 -121q0 -47 50 -47q30 0 56 16zM49 598v124h162v-124h-162z" />
    <glyph glyph-name="Idotaccent" unicode="&#x130;" horiz-adv-x="278" 
d="M55 0v714h168v-714h-168zM78 895h124v-130h-124v130z" />
    <glyph glyph-name="dotlessi" unicode="&#x131;" 
d="M49 0v541h162v-541h-162z" />
    <glyph glyph-name="Jcircumflex" unicode="&#x134;" horiz-adv-x="500" 
d="M280 215v499h168v-499q0 -229 -219 -229q-213 0 -213 197v44h156v-31q0 -23 1 -36.5t6 -30t17 -24t31 -7.5q33 0 43 29t10 88zM208 759l71 142h168l71 -142h-118l-37 81l-36 -81h-119z" />
    <glyph glyph-name="jcircumflex" unicode="&#x135;" 
d="M49 6v535h162v-554q0 -89 -33 -126t-132 -37q-15 0 -69 2v111q5 -1 13 -1h10q33 2 41 16t8 54zM-28 599l71 142h168l71 -142h-118l-37 81l-36 -81h-119z" />
    <glyph glyph-name="Kcommaaccent" unicode="&#x136;" horiz-adv-x="574" 
d="M52 0v714h168v-282h2l157 282h181l-187 -308l210 -406h-189l-129 269l-45 -69v-200h-168zM241 -154v104h134v-76q-3 -54 -31 -75t-86 -23v40q25 4 33.5 10.5t10.5 19.5h-61z" />
    <glyph glyph-name="kcommaaccent" unicode="&#x137;" horiz-adv-x="519" 
d="M45 0v714h162v-367h2l121 194h178l-155 -218l174 -323h-177l-101 204l-42 -57v-147h-162zM208 -154v104h134v-76q-3 -54 -31 -75t-86 -23v40q25 4 33.5 10.5t10.5 19.5h-61z" />
    <glyph glyph-name="Lacute" unicode="&#x139;" horiz-adv-x="463" 
d="M52 0v714h168v-578h243v-136h-411zM82 759l50 142h156l-100 -142h-106z" />
    <glyph glyph-name="lacute" unicode="&#x13a;" 
d="M49 0v714h162v-714h-162zM50 759l50 142h156l-100 -142h-106z" />
    <glyph glyph-name="Lcommaaccent" unicode="&#x13b;" horiz-adv-x="463" 
d="M52 0v714h168v-578h243v-136h-411zM183 -154v104h134v-76q-3 -54 -31 -75t-86 -23v40q25 4 33.5 10.5t10.5 19.5h-61z" />
    <glyph glyph-name="lcommaaccent" unicode="&#x13c;" 
d="M49 0v714h162v-714h-162zM63 -154v104h134v-76q-3 -54 -31 -75t-86 -23v40q25 4 33.5 10.5t10.5 19.5h-61z" />
    <glyph glyph-name="Lcaron" unicode="&#x13d;" horiz-adv-x="463" 
d="M52 0v714h168v-578h243v-136h-411zM270 572l26 142h131l-59 -142h-98z" />
    <glyph glyph-name="lcaron" unicode="&#x13e;" horiz-adv-x="359" 
d="M49 0v714h162v-714h-162zM246 572l26 142h131l-59 -142h-98z" />
    <glyph glyph-name="Ldot" unicode="&#x13f;" horiz-adv-x="463" 
d="M52 0v714h168v-578h243v-136h-411zM281 541h124v-130h-124v130z" />
    <glyph glyph-name="ldot" unicode="&#x140;" horiz-adv-x="399" 
d="M49 0v714h162v-714h-162zM261 541h124v-130h-124v130z" />
    <glyph glyph-name="Lslash" unicode="&#x141;" horiz-adv-x="463" 
d="M52 0v227l-62 -40v142l62 40v345h168v-236l120 77v-142l-120 -77v-200h243v-136h-411z" />
    <glyph glyph-name="lslash" unicode="&#x142;" 
d="M49 0v253l-49 -33v136l49 33v325h162v-221l49 33v-136l-49 -33v-357h-162z" />
    <glyph glyph-name="Nacute" unicode="&#x143;" horiz-adv-x="593" 
d="M52 0v714h193l138 -464h2v464h156v-714h-190l-147 492h-2v-492h-150zM240 759l50 142h156l-100 -142h-106z" />
    <glyph glyph-name="nacute" unicode="&#x144;" horiz-adv-x="519" 
d="M45 0v541h156v-64h2q17 36 51.5 57t78.5 21q141 0 141 -150v-405h-162v369q0 62 -47 62q-25 0 -41.5 -19.5t-16.5 -57.5v-354h-162zM193 599l50 142h156l-100 -142h-106z" />
    <glyph glyph-name="Ncommaaccent" unicode="&#x145;" horiz-adv-x="593" 
d="M52 0v714h193l138 -464h2v464h156v-714h-190l-147 492h-2v-492h-150zM233 -154v104h134v-76q-3 -54 -31 -75t-86 -23v40q25 4 33.5 10.5t10.5 19.5h-61z" />
    <glyph glyph-name="ncommaaccent" unicode="&#x146;" horiz-adv-x="519" 
d="M45 0v541h156v-64h2q17 36 51.5 57t78.5 21q141 0 141 -150v-405h-162v369q0 62 -47 62q-25 0 -41.5 -19.5t-16.5 -57.5v-354h-162zM193 -154v104h134v-76q-3 -54 -31 -75t-86 -23v40q25 4 33.5 10.5t10.5 19.5h-61z" />
    <glyph glyph-name="Ncaron" unicode="&#x147;" horiz-adv-x="593" 
d="M52 0v714h193l138 -464h2v464h156v-714h-190l-147 492h-2v-492h-150zM214 759l-71 142h119l36 -81l37 81h118l-71 -142h-168z" />
    <glyph glyph-name="ncaron" unicode="&#x148;" horiz-adv-x="519" 
d="M45 0v541h156v-64h2q17 36 51.5 57t78.5 21q141 0 141 -150v-405h-162v369q0 62 -47 62q-25 0 -41.5 -19.5t-16.5 -57.5v-354h-162zM173 599l-71 142h119l36 -81l37 81h118l-71 -142h-168z" />
    <glyph glyph-name="Omacron" unicode="&#x14c;" horiz-adv-x="574" 
d="M538 357q0 -50 -1.5 -83.5t-7 -76t-15.5 -70.5t-28.5 -57t-45 -46t-65 -27.5t-88.5 -10.5q-65 0 -111 17.5t-73 47t-42 79t-20 101t-5 126.5t5 126.5t20 101t42 79t73 47t111 17.5q50 0 88.5 -10.5t65 -27.5t45 -46t28.5 -57t15.5 -70.5t7 -76t1.5 -83.5zM210 357
q0 -154 14 -206.5t62 -52.5q49 0 63.5 52.5t14.5 206.5t-14.5 206.5t-63.5 52.5q-48 0 -62 -52.5t-14 -206.5zM131 786v88h310v-88h-310z" />
    <glyph glyph-name="omacron" unicode="&#x14d;" horiz-adv-x="500" 
d="M250 -14q-58 0 -99 14.5t-65 38t-37.5 62t-17.5 76.5t-4 92q0 66 9 114t32 89t68.5 62t113.5 21q58 0 99 -14.5t65 -38t37.5 -61.5t17.5 -76.5t4 -92.5q0 -66 -9 -114t-32 -89t-68.5 -62t-113.5 -21zM311 270q0 104 -12 141.5t-48 37.5t-49 -39t-13 -139t13 -139.5
t49 -39.5t48 37.5t12 140.5zM94 626v88h310v-88h-310z" />
    <glyph glyph-name="Obreve" unicode="&#x14e;" horiz-adv-x="574" 
d="M538 357q0 -50 -1.5 -83.5t-7 -76t-15.5 -70.5t-28.5 -57t-45 -46t-65 -27.5t-88.5 -10.5q-65 0 -111 17.5t-73 47t-42 79t-20 101t-5 126.5t5 126.5t20 101t42 79t73 47t111 17.5q50 0 88.5 -10.5t65 -27.5t45 -46t28.5 -57t15.5 -70.5t7 -76t1.5 -83.5zM210 357
q0 -154 14 -206.5t62 -52.5q49 0 63.5 52.5t14.5 206.5t-14.5 206.5t-63.5 52.5q-48 0 -62 -52.5t-14 -206.5zM287 837q26 0 47.5 18t25.5 46h72q0 -63 -36.5 -102.5t-108.5 -39.5t-108.5 39.5t-36.5 102.5h72q4 -28 25.5 -46t47.5 -18z" />
    <glyph glyph-name="obreve" unicode="&#x14f;" horiz-adv-x="500" 
d="M250 -14q-58 0 -99 14.5t-65 38t-37.5 62t-17.5 76.5t-4 92q0 66 9 114t32 89t68.5 62t113.5 21q58 0 99 -14.5t65 -38t37.5 -61.5t17.5 -76.5t4 -92.5q0 -66 -9 -114t-32 -89t-68.5 -62t-113.5 -21zM311 270q0 104 -12 141.5t-48 37.5t-49 -39t-13 -139t13 -139.5
t49 -39.5t48 37.5t12 140.5zM249 677q26 0 47.5 18t25.5 46h72q0 -63 -36.5 -102.5t-108.5 -39.5t-108.5 39.5t-36.5 102.5h72q4 -28 25.5 -46t47.5 -18z" />
    <glyph glyph-name="Ohungarumlaut" unicode="&#x150;" horiz-adv-x="574" 
d="M538 357q0 -50 -1.5 -83.5t-7 -76t-15.5 -70.5t-28.5 -57t-45 -46t-65 -27.5t-88.5 -10.5q-65 0 -111 17.5t-73 47t-42 79t-20 101t-5 126.5t5 126.5t20 101t42 79t73 47t111 17.5q50 0 88.5 -10.5t65 -27.5t45 -46t28.5 -57t15.5 -70.5t7 -76t1.5 -83.5zM210 357
q0 -154 14 -206.5t62 -52.5q49 0 63.5 52.5t14.5 206.5t-14.5 206.5t-63.5 52.5q-48 0 -62 -52.5t-14 -206.5zM330 759l50 142h156l-100 -142h-106zM130 759l50 142h156l-100 -142h-106z" />
    <glyph glyph-name="ohungarumlaut" unicode="&#x151;" horiz-adv-x="500" 
d="M250 -14q-58 0 -99 14.5t-65 38t-37.5 62t-17.5 76.5t-4 92q0 66 9 114t32 89t68.5 62t113.5 21q58 0 99 -14.5t65 -38t37.5 -61.5t17.5 -76.5t4 -92.5q0 -66 -9 -114t-32 -89t-68.5 -62t-113.5 -21zM311 270q0 104 -12 141.5t-48 37.5t-49 -39t-13 -139t13 -139.5
t49 -39.5t48 37.5t12 140.5zM294 599l50 142h156l-100 -142h-106zM94 599l50 142h156l-100 -142h-106z" />
    <glyph glyph-name="OE" unicode="&#x152;" horiz-adv-x="778" 
d="M210 357q0 -75 1.5 -109t8 -76t23.5 -58t45 -16q61 0 71 70q6 39 6 135v54v53q0 97 -6 136q-10 70 -71 70q-28 0 -45 -16t-23.5 -58t-8 -76t-1.5 -109zM383 0v37q-46 -51 -128 -51q-58 0 -99.5 20t-64.5 50.5t-35.5 82t-16 99.5t-3.5 119q0 31 0.5 47.5t1.5 48.5t4 51
t8 48t13 47t19.5 41t27.5 36.5t36.5 26.5t47 19t58.5 6q80 0 129 -49v35h372v-136h-232v-143h219v-136h-219v-163h241v-136h-379z" />
    <glyph glyph-name="oe" unicode="&#x153;" horiz-adv-x="741" 
d="M461 338h111q0 61 -10.5 89t-41.5 28q-36 0 -47.5 -28t-11.5 -89zM189 270q0 -99 11.5 -138.5t49.5 -39.5q37 0 49 43t12 134q0 100 -11.5 140t-49.5 40q-37 0 -49 -43t-12 -136zM728 244h-267v-33q0 -66 12 -95.5t44 -29.5q28 0 40.5 23t15.5 76h150q-5 -102 -53 -150
q-48 -49 -141 -49q-112 0 -148 71q-24 -41 -61 -56t-92 -15q-104 0 -152.5 64.5t-48.5 214.5q0 67 8.5 115t30.5 90t66 63.5t109 21.5q55 0 89.5 -16.5t58.5 -52.5q26 38 60 53.5t84 15.5q57 0 96 -19t60 -56.5t30 -83.5t9 -108v-44z" />
    <glyph glyph-name="Racute" unicode="&#x154;" horiz-adv-x="574" 
d="M52 0v714h282q100 0 146 -52t46 -134q0 -76 -29.5 -117.5t-90.5 -56.5v-2q32 -5 53.5 -16.5t33 -24.5t18 -38t8 -44t2.5 -55q2 -102 8 -129.5t24 -35.5v-9h-181q-18 33 -18 145q0 91 -14.5 120.5t-55.5 29.5h-64v-295h-168zM220 596v-183h52q46 0 66 27t20 66
q0 90 -87 90h-51zM199 759l50 142h156l-100 -142h-106z" />
    <glyph glyph-name="racute" unicode="&#x155;" horiz-adv-x="370" 
d="M45 0v541h156v-76h2q39 90 130 90h12q4 0 14 -2v-152q-21 4 -45 4q-107 0 -107 -98v-307h-162zM94 599l50 142h156l-100 -142h-106z" />
    <glyph glyph-name="Rcommaaccent" unicode="&#x156;" horiz-adv-x="574" 
d="M52 0v714h282q100 0 146 -52t46 -134q0 -76 -29.5 -117.5t-90.5 -56.5v-2q32 -5 53.5 -16.5t33 -24.5t18 -38t8 -44t2.5 -55q2 -102 8 -129.5t24 -35.5v-9h-181q-18 33 -18 145q0 91 -14.5 120.5t-55.5 29.5h-64v-295h-168zM220 596v-183h52q46 0 66 27t20 66
q0 90 -87 90h-51zM227 -154v104h134v-76q-3 -54 -31 -75t-86 -23v40q25 4 33.5 10.5t10.5 19.5h-61z" />
    <glyph glyph-name="rcommaaccent" unicode="&#x157;" horiz-adv-x="370" 
d="M45 0v541h156v-76h2q39 90 130 90h12q4 0 14 -2v-152q-21 4 -45 4q-107 0 -107 -98v-307h-162zM58 -154v104h134v-76q-3 -54 -31 -75t-86 -23v40q25 4 33.5 10.5t10.5 19.5h-61z" />
    <glyph glyph-name="Rcaron" unicode="&#x158;" horiz-adv-x="574" 
d="M52 0v714h282q100 0 146 -52t46 -134q0 -76 -29.5 -117.5t-90.5 -56.5v-2q32 -5 53.5 -16.5t33 -24.5t18 -38t8 -44t2.5 -55q2 -102 8 -129.5t24 -35.5v-9h-181q-18 33 -18 145q0 91 -14.5 120.5t-55.5 29.5h-64v-295h-168zM220 596v-183h52q46 0 66 27t20 66
q0 90 -87 90h-51zM183 759l-71 142h119l36 -81l37 81h118l-71 -142h-168z" />
    <glyph glyph-name="rcaron" unicode="&#x159;" horiz-adv-x="370" 
d="M45 0v541h156v-76h2q39 90 130 90h12q4 0 14 -2v-152q-21 4 -45 4q-107 0 -107 -98v-307h-162zM121 599l-71 142h119l36 -81l37 81h118l-71 -142h-168z" />
    <glyph glyph-name="Sacute" unicode="&#x15a;" horiz-adv-x="537" 
d="M29 218h162v-25q0 -45 16 -70t57 -25t58.5 24.5t17.5 60.5q0 31 -17 52.5t-44 34.5t-60 25t-65.5 28t-59.5 38.5t-44 62.5t-17 94q0 94 56 152t178 58q119 0 173.5 -53t54.5 -142v-17h-162q0 52 -14 75q-15 25 -51 25q-67 0 -67 -77q0 -30 17 -51.5t44 -34.5t59.5 -25
t65.5 -28t60 -37.5t44 -60t17 -89.5q0 -119 -62 -173t-182 -54q-235 0 -235 186v46zM212 759l50 142h156l-100 -142h-106z" />
    <glyph glyph-name="sacute" unicode="&#x15b;" horiz-adv-x="463" 
d="M25 172h144q2 -43 11 -61q15 -25 50 -25q28 0 43 15.5t15 39.5q0 45 -62 66q-48 16 -72.5 25.5t-53 25.5t-41.5 32.5t-21.5 42t-8.5 59.5q0 80 53.5 121.5t152.5 41.5q105 0 150.5 -43t45.5 -109v-18h-144v10q0 34 -12.5 47t-40.5 13q-55 0 -55 -50q0 -22 19 -36.5
t48 -21.5t62.5 -20t62.5 -29t48 -51t19 -84q0 -83 -53.5 -130t-153.5 -47q-107 0 -156.5 40t-49.5 122v24zM179 599l50 142h156l-100 -142h-106z" />
    <glyph glyph-name="Scircumflex" unicode="&#x15c;" horiz-adv-x="537" 
d="M29 218h162v-25q0 -45 16 -70t57 -25t58.5 24.5t17.5 60.5q0 31 -17 52.5t-44 34.5t-60 25t-65.5 28t-59.5 38.5t-44 62.5t-17 94q0 94 56 152t178 58q119 0 173.5 -53t54.5 -142v-17h-162q0 52 -14 75q-15 25 -51 25q-67 0 -67 -77q0 -30 17 -51.5t44 -34.5t59.5 -25
t65.5 -28t60 -37.5t44 -60t17 -89.5q0 -119 -62 -173t-182 -54q-235 0 -235 186v46zM115 759l71 142h168l71 -142h-118l-37 81l-36 -81h-119z" />
    <glyph glyph-name="scircumflex" unicode="&#x15d;" horiz-adv-x="463" 
d="M25 172h144q2 -43 11 -61q15 -25 50 -25q28 0 43 15.5t15 39.5q0 45 -62 66q-48 16 -72.5 25.5t-53 25.5t-41.5 32.5t-21.5 42t-8.5 59.5q0 80 53.5 121.5t152.5 41.5q105 0 150.5 -43t45.5 -109v-18h-144v10q0 34 -12.5 47t-40.5 13q-55 0 -55 -50q0 -22 19 -36.5
t48 -21.5t62.5 -20t62.5 -29t48 -51t19 -84q0 -83 -53.5 -130t-153.5 -47q-107 0 -156.5 40t-49.5 122v24zM77 599l71 142h168l71 -142h-118l-37 81l-36 -81h-119z" />
    <glyph glyph-name="Scedilla" unicode="&#x15e;" horiz-adv-x="537" 
d="M137 -205l21 52q36 -15 73 -15q46 0 46 34q0 13 -13.5 22t-32.5 9q-11 0 -29 -6l-23 19l44 78q-24 2 -48 6q-146 28 -146 178v46h162v-25q0 -45 16 -70t57 -25t58.5 24.5t17.5 60.5q0 31 -17 52.5t-44 34.5t-60 25t-65.5 28t-59.5 38.5t-44 62.5t-17 94q0 94 56 152
t178 58q119 0 173.5 -53t54.5 -142v-17h-162q0 52 -14 75q-15 25 -51 25q-67 0 -67 -77q0 -30 17 -51.5t44 -34.5t59.5 -25t65.5 -28t60 -37.5t44 -60t17 -89.5q0 -176 -141 -214q-41 -12 -85 -13l-27 -46q9 4 26 4q44 0 67 -22.5t23 -54.5q0 -39 -31 -65t-89 -26
q-66 0 -114 19z" />
    <glyph glyph-name="Scedilla" unicode="&#xf6c1;" horiz-adv-x="537" 
d="M137 -205l21 52q36 -15 73 -15q46 0 46 34q0 13 -13.5 22t-32.5 9q-11 0 -29 -6l-23 19l44 78q-24 2 -48 6q-146 28 -146 178v46h162v-25q0 -45 16 -70t57 -25t58.5 24.5t17.5 60.5q0 31 -17 52.5t-44 34.5t-60 25t-65.5 28t-59.5 38.5t-44 62.5t-17 94q0 94 56 152
t178 58q119 0 173.5 -53t54.5 -142v-17h-162q0 52 -14 75q-15 25 -51 25q-67 0 -67 -77q0 -30 17 -51.5t44 -34.5t59.5 -25t65.5 -28t60 -37.5t44 -60t17 -89.5q0 -176 -141 -214q-41 -12 -85 -13l-27 -46q9 4 26 4q44 0 67 -22.5t23 -54.5q0 -39 -31 -65t-89 -26
q-66 0 -114 19z" />
    <glyph glyph-name="scedilla" unicode="&#x15f;" horiz-adv-x="463" 
d="M103 -205l21 52q36 -15 73 -15q46 0 46 34q0 13 -13.5 22t-32.5 9q-11 0 -29 -6l-23 19l45 78q-77 6 -117 38q-48 40 -48 122v24h144q2 -43 11 -61q15 -25 50 -25q28 0 43 15.5t15 39.5q0 45 -62 66q-48 16 -72.5 25.5t-53 25.5t-41.5 32.5t-21.5 42t-8.5 59.5
q0 80 53.5 121.5t152.5 41.5q105 0 150.5 -43t45.5 -109v-18h-144v10q0 34 -12.5 47t-40.5 13q-55 0 -55 -50q0 -22 19 -36.5t48 -21.5t62.5 -20t62.5 -29t48 -51t19 -84q0 -82 -53 -130q-48 -42 -137 -47l-27 -46q9 4 26 4q44 0 67 -22.5t23 -54.5q0 -39 -31 -65t-89 -26
q-66 0 -114 19z" />
    <glyph glyph-name="scedilla" unicode="&#xf6c2;" horiz-adv-x="463" 
d="M103 -205l21 52q36 -15 73 -15q46 0 46 34q0 13 -13.5 22t-32.5 9q-11 0 -29 -6l-23 19l45 78q-77 6 -117 38q-48 40 -48 122v24h144q2 -43 11 -61q15 -25 50 -25q28 0 43 15.5t15 39.5q0 45 -62 66q-48 16 -72.5 25.5t-53 25.5t-41.5 32.5t-21.5 42t-8.5 59.5
q0 80 53.5 121.5t152.5 41.5q105 0 150.5 -43t45.5 -109v-18h-144v10q0 34 -12.5 47t-40.5 13q-55 0 -55 -50q0 -22 19 -36.5t48 -21.5t62.5 -20t62.5 -29t48 -51t19 -84q0 -82 -53 -130q-48 -42 -137 -47l-27 -46q9 4 26 4q44 0 67 -22.5t23 -54.5q0 -39 -31 -65t-89 -26
q-66 0 -114 19z" />
    <glyph glyph-name="Scaron" unicode="&#x160;" horiz-adv-x="537" 
d="M29 218h162v-25q0 -45 16 -70t57 -25t58.5 24.5t17.5 60.5q0 31 -17 52.5t-44 34.5t-60 25t-65.5 28t-59.5 38.5t-44 62.5t-17 94q0 94 56 152t178 58q119 0 173.5 -53t54.5 -142v-17h-162q0 52 -14 75q-15 25 -51 25q-67 0 -67 -77q0 -30 17 -51.5t44 -34.5t59.5 -25
t65.5 -28t60 -37.5t44 -60t17 -89.5q0 -119 -62 -173t-182 -54q-235 0 -235 186v46zM186 759l-71 142h119l36 -81l37 81h118l-71 -142h-168z" />
    <glyph glyph-name="scaron" unicode="&#x161;" horiz-adv-x="463" 
d="M25 172h144q2 -43 11 -61q15 -25 50 -25q28 0 43 15.5t15 39.5q0 45 -62 66q-48 16 -72.5 25.5t-53 25.5t-41.5 32.5t-21.5 42t-8.5 59.5q0 80 53.5 121.5t152.5 41.5q105 0 150.5 -43t45.5 -109v-18h-144v10q0 34 -12.5 47t-40.5 13q-55 0 -55 -50q0 -22 19 -36.5
t48 -21.5t62.5 -20t62.5 -29t48 -51t19 -84q0 -83 -53.5 -130t-153.5 -47q-107 0 -156.5 40t-49.5 122v24zM151 599l-71 142h119l36 -81l37 81h118l-71 -142h-168z" />
    <glyph glyph-name="Tcommaaccent" unicode="&#x162;" horiz-adv-x="480" 
d="M156 0v578h-150v136h468v-136h-150v-578h-168zM172 -154v104h134v-76q-3 -54 -31 -75t-86 -23v40q25 4 33.5 10.5t10.5 19.5h-61z" />
    <glyph glyph-name="tcommaaccent" unicode="&#x163;" horiz-adv-x="315" 
d="M66 140v289h-67v112h67v159h162v-159h75v-112h-75v-273q0 -29 11 -39.5t41 -10.5q9 0 23 2v-108q-47 -6 -93 -6q-87 0 -115.5 27t-28.5 119zM117 -154v104h134v-76q-3 -54 -31 -75t-86 -23v40q25 4 33.5 10.5t10.5 19.5h-61z" />
    <glyph glyph-name="Tcaron" unicode="&#x164;" horiz-adv-x="480" 
d="M156 0v578h-150v136h468v-136h-150v-578h-168zM158 759l-71 142h119l36 -81l37 81h118l-71 -142h-168z" />
    <glyph glyph-name="tcaron" unicode="&#x165;" horiz-adv-x="414" 
d="M297 572l26 142h131l-59 -142h-98zM66 140v289h-67v112h67v159h162v-159h75v-112h-75v-273q0 -29 11 -39.5t41 -10.5q9 0 23 2v-108q-47 -6 -93 -6q-87 0 -115.5 27t-28.5 119z" />
    <glyph glyph-name="Tbar" unicode="&#x166;" horiz-adv-x="480" 
d="M53 355v68h103v155h-150v136h468v-136h-150v-155h102v-68h-102v-355h-168v355h-103z" />
    <glyph glyph-name="tbar" unicode="&#x167;" horiz-adv-x="315" 
d="M-10 255v68h76v106h-67v112h67v159h162v-159h75v-112h-75v-106h84v-68h-84v-99q0 -29 11 -39.5t41 -10.5q9 0 23 2v-108q-47 -6 -93 -6q-87 0 -115.5 27t-28.5 119v115h-76z" />
    <glyph glyph-name="Utilde" unicode="&#x168;" horiz-adv-x="556" 
d="M513 714v-478q0 -57 -9.5 -99t-34.5 -78t-72.5 -54.5t-118.5 -18.5t-118.5 18.5t-72.5 54.5t-34.5 78t-9.5 99v478h168v-527q0 -89 67 -89t67 89v527h168zM362 898h80q-12 -136 -100 -136q-27 0 -67.5 15t-50.5 15q-21 0 -29 -30h-77q5 60 27 94q27 42 67 42q32 0 68 -15
q43 -15 51 -15q17 0 22.5 7.5t8.5 22.5z" />
    <glyph glyph-name="utilde" unicode="&#x169;" horiz-adv-x="519" 
d="M474 541v-541h-156v64h-2q-17 -36 -51.5 -57t-78.5 -21q-141 0 -141 150v405h162v-369q0 -62 47 -62q25 0 41.5 19.5t16.5 57.5v354h162zM343 738h80q-12 -136 -100 -136q-27 0 -67.5 15t-50.5 15q-21 0 -29 -30h-77q5 60 27 94q27 42 67 42q32 0 68 -15q43 -15 51 -15
q17 0 22.5 7.5t8.5 22.5z" />
    <glyph glyph-name="Umacron" unicode="&#x16a;" horiz-adv-x="556" 
d="M513 714v-478q0 -57 -9.5 -99t-34.5 -78t-72.5 -54.5t-118.5 -18.5t-118.5 18.5t-72.5 54.5t-34.5 78t-9.5 99v478h168v-527q0 -89 67 -89t67 89v527h168zM125 786v88h310v-88h-310z" />
    <glyph glyph-name="umacron" unicode="&#x16b;" horiz-adv-x="519" 
d="M474 541v-541h-156v64h-2q-17 -36 -51.5 -57t-78.5 -21q-141 0 -141 150v405h162v-369q0 -62 47 -62q25 0 41.5 19.5t16.5 57.5v354h162zM106 626v88h310v-88h-310z" />
    <glyph glyph-name="Ubreve" unicode="&#x16c;" horiz-adv-x="556" 
d="M513 714v-478q0 -57 -9.5 -99t-34.5 -78t-72.5 -54.5t-118.5 -18.5t-118.5 18.5t-72.5 54.5t-34.5 78t-9.5 99v478h168v-527q0 -89 67 -89t67 89v527h168zM280 837q26 0 47.5 18t25.5 46h72q0 -63 -36.5 -102.5t-108.5 -39.5t-108.5 39.5t-36.5 102.5h72q4 -28 25.5 -46
t47.5 -18z" />
    <glyph glyph-name="ubreve" unicode="&#x16d;" horiz-adv-x="519" 
d="M474 541v-541h-156v64h-2q-17 -36 -51.5 -57t-78.5 -21q-141 0 -141 150v405h162v-369q0 -62 47 -62q25 0 41.5 19.5t16.5 57.5v354h162zM261 677q26 0 47.5 18t25.5 46h72q0 -63 -36.5 -102.5t-108.5 -39.5t-108.5 39.5t-36.5 102.5h72q4 -28 25.5 -46t47.5 -18z" />
    <glyph glyph-name="Uring" unicode="&#x16e;" horiz-adv-x="556" 
d="M513 714v-478q0 -57 -9.5 -99t-34.5 -78t-72.5 -54.5t-118.5 -18.5t-118.5 18.5t-72.5 54.5t-34.5 78t-9.5 99v478h168v-527q0 -89 67 -89t67 89v527h168zM220 850q0 -25 17.5 -42.5t42.5 -17.5t42.5 17.5t17.5 42.5t-17.5 42.5t-42.5 17.5t-42.5 -17.5t-17.5 -42.5z
M159 850q0 51 35 84t86 33t86 -33t35 -84t-35 -83t-86 -32t-86 32t-35 83z" />
    <glyph glyph-name="uring" unicode="&#x16f;" horiz-adv-x="519" 
d="M474 541v-541h-156v64h-2q-17 -36 -51.5 -57t-78.5 -21q-141 0 -141 150v405h162v-369q0 -62 47 -62q25 0 41.5 19.5t16.5 57.5v354h162zM200 694q0 -25 17.5 -42.5t42.5 -17.5t42.5 17.5t17.5 42.5t-17.5 42.5t-42.5 17.5t-42.5 -17.5t-17.5 -42.5zM139 694q0 51 35 84
t86 33t86 -33t35 -84t-35 -83t-86 -32t-86 32t-35 83z" />
    <glyph glyph-name="Uhungarumlaut" unicode="&#x170;" horiz-adv-x="556" 
d="M513 714v-478q0 -57 -9.5 -99t-34.5 -78t-72.5 -54.5t-118.5 -18.5t-118.5 18.5t-72.5 54.5t-34.5 78t-9.5 99v478h168v-527q0 -89 67 -89t67 89v527h168zM324 759l50 142h156l-100 -142h-106zM124 759l50 142h156l-100 -142h-106z" />
    <glyph glyph-name="uhungarumlaut" unicode="&#x171;" horiz-adv-x="519" 
d="M474 541v-541h-156v64h-2q-17 -36 -51.5 -57t-78.5 -21q-141 0 -141 150v405h162v-369q0 -62 47 -62q25 0 41.5 19.5t16.5 57.5v354h162zM307 599l50 142h156l-100 -142h-106zM107 599l50 142h156l-100 -142h-106z" />
    <glyph glyph-name="Uogonek" unicode="&#x172;" horiz-adv-x="556" 
d="M360 -152l23 -45q-49 -27 -116 -27q-51 0 -79 23.5t-28 65.5q0 39 32 74q24 27 57 48q-54 3 -90 18q-45 19 -71.5 54.5t-35.5 77t-9 99.5v478h168v-527q0 -89 67 -89t67 89v527h168v-478q0 -58 -9 -99.5t-35.5 -77t-71.5 -54.5q-33 -12 -65 -16q-78 -65 -78 -110
q0 -47 50 -47q30 0 56 16z" />
    <glyph glyph-name="uogonek" unicode="&#x173;" horiz-adv-x="519" 
d="M474 541v-541h-86q-72 -72 -72 -122q0 -46 47 -46q26 0 51 16l20 -45q-42 -27 -104 -27q-46 0 -72 22t-26 64q0 35 20 65t66 73v64h-2q-17 -36 -51.5 -57t-78.5 -21q-141 0 -141 150v405h162v-369q0 -62 47 -62q25 0 41.5 19.5t16.5 57.5v354h162z" />
    <glyph glyph-name="Wcircumflex" unicode="&#x174;" horiz-adv-x="778" 
d="M132 0l-126 714h168l62 -508h2l74 508h156l80 -508h2l60 508h162l-124 -714h-186l-73 507h-2l-69 -507h-186zM236 759l71 142h168l71 -142h-118l-37 81l-36 -81h-119z" />
    <glyph glyph-name="wcircumflex" unicode="&#x175;" horiz-adv-x="741" 
d="M122 0l-113 541h162l52 -399h2l61 399h174l57 -399h2l57 399h156l-117 -541h-183l-59 399h-2l-63 -399h-186zM219 599l71 142h168l71 -142h-118l-37 81l-36 -81h-119z" />
    <glyph glyph-name="Ycircumflex" unicode="&#x176;" horiz-adv-x="536" 
d="M184 0v281l-181 433h186l80 -265h2l82 265h180l-181 -433v-281h-168zM116 759l71 142h168l71 -142h-118l-37 81l-36 -81h-119z" />
    <glyph glyph-name="ycircumflex" unicode="&#x177;" horiz-adv-x="481" 
d="M163 -4l-153 545h168l66 -379h2l63 379h162l-145 -545q-28 -104 -67.5 -138t-133.5 -34h-37q-11 0 -33 2v114q17 -4 40 -4q57 0 68 60zM91 599l71 142h168l71 -142h-118l-37 81l-36 -81h-119z" />
    <glyph glyph-name="Ydieresis" unicode="&#x178;" horiz-adv-x="536" 
d="M184 0v281l-181 433h186l80 -265h2l82 265h180l-181 -433v-281h-168zM297 765v130h124v-130h-124zM121 765v130h124v-130h-124z" />
    <glyph glyph-name="Zacute" unicode="&#x179;" horiz-adv-x="481" 
d="M23 0v124l242 454h-223v136h416v-118l-245 -460h245v-136h-435zM190 759l50 142h156l-100 -142h-106z" />
    <glyph glyph-name="zacute" unicode="&#x17a;" horiz-adv-x="463" 
d="M31 0v124l204 293h-195v124h387v-124l-210 -293h215v-124h-401zM174 599l50 142h156l-100 -142h-106z" />
    <glyph glyph-name="Zdotaccent" unicode="&#x17b;" horiz-adv-x="481" 
d="M23 0v124l242 454h-223v136h416v-118l-245 -460h245v-136h-435zM193 895h124v-130h-124v130z" />
    <glyph glyph-name="zdotaccent" unicode="&#x17c;" horiz-adv-x="463" 
d="M31 0v124l204 293h-195v124h387v-124l-210 -293h215v-124h-401zM176 735h124v-130h-124v130z" />
    <glyph glyph-name="Zcaron" unicode="&#x17d;" horiz-adv-x="481" 
d="M23 0v124l242 454h-223v136h416v-118l-245 -460h245v-136h-435zM170 759l-71 142h119l36 -81l37 81h118l-71 -142h-168z" />
    <glyph glyph-name="zcaron" unicode="&#x17e;" horiz-adv-x="463" 
d="M31 0v124l204 293h-195v124h387v-124l-210 -293h215v-124h-401zM152 599l-71 142h119l36 -81l37 81h118l-71 -142h-168z" />
    <glyph glyph-name="florin" unicode="&#x192;" horiz-adv-x="520" 
d="M-19 -168l21 100q18 -2 39 -2q34 0 51 18t27 71l60 308h-108l19 94h107l27 137q15 79 63 117.5t137 38.5q30 0 85 -5l-22 -103q-24 2 -32 2q-41 0 -58.5 -19t-29.5 -81l-17 -87h112l-19 -94h-111l-63 -325q-17 -88 -61.5 -133t-136.5 -45q-52 0 -90 8z" />
    <glyph glyph-name="Scommaaccent" unicode="&#x218;" horiz-adv-x="537" 
d="M29 218h162v-25q0 -45 16 -70t57 -25t58.5 24.5t17.5 60.5q0 31 -17 52.5t-44 34.5t-60 25t-65.5 28t-59.5 38.5t-44 62.5t-17 94q0 94 56 152t178 58q119 0 173.5 -53t54.5 -142v-17h-162q0 52 -14 75q-15 25 -51 25q-67 0 -67 -77q0 -30 17 -51.5t44 -34.5t59.5 -25
t65.5 -28t60 -37.5t44 -60t17 -89.5q0 -119 -62 -173t-182 -54q-235 0 -235 186v46zM196 -154v104h134v-76q-3 -54 -31 -75t-86 -23v40q25 4 33.5 10.5t10.5 19.5h-61z" />
    <glyph glyph-name="scommaaccent" unicode="&#x219;" horiz-adv-x="463" 
d="M25 172h144q2 -43 11 -61q15 -25 50 -25q28 0 43 15.5t15 39.5q0 45 -62 66q-48 16 -72.5 25.5t-53 25.5t-41.5 32.5t-21.5 42t-8.5 59.5q0 80 53.5 121.5t152.5 41.5q105 0 150.5 -43t45.5 -109v-18h-144v10q0 34 -12.5 47t-40.5 13q-55 0 -55 -50q0 -22 19 -36.5
t48 -21.5t62.5 -20t62.5 -29t48 -51t19 -84q0 -83 -53.5 -130t-153.5 -47q-107 0 -156.5 40t-49.5 122v24zM166 -154v104h134v-76q-3 -54 -31 -75t-86 -23v40q25 4 33.5 10.5t10.5 19.5h-61z" />
    <glyph glyph-name="uni021A" unicode="&#x21a;" horiz-adv-x="480" 
d="M156 0v578h-150v136h468v-136h-150v-578h-168zM172 -154v104h134v-76q-3 -54 -31 -75t-86 -23v40q25 4 33.5 10.5t10.5 19.5h-61z" />
    <glyph glyph-name="uni021B" unicode="&#x21b;" horiz-adv-x="315" 
d="M66 140v289h-67v112h67v159h162v-159h75v-112h-75v-273q0 -29 11 -39.5t41 -10.5q9 0 23 2v-108q-47 -6 -93 -6q-87 0 -115.5 27t-28.5 119zM117 -154v104h134v-76q-3 -54 -31 -75t-86 -23v40q25 4 33.5 10.5t10.5 19.5h-61z" />
    <glyph glyph-name="circumflex" unicode="&#x2c6;" 
d="M-25 599l71 142h168l71 -142h-118l-37 81l-36 -81h-119z" />
    <glyph glyph-name="caron" unicode="&#x2c7;" 
d="M46 599l-71 142h119l36 -81l37 81h118l-71 -142h-168z" />
    <glyph glyph-name="uni02C9" unicode="&#x2c9;" 
d="M-25 626v88h310v-88h-310z" />
    <glyph glyph-name="breve" unicode="&#x2d8;" 
d="M130 677q26 0 47.5 18t25.5 46h72q0 -63 -36.5 -102.5t-108.5 -39.5t-108.5 39.5t-36.5 102.5h72q4 -28 25.5 -46t47.5 -18z" />
    <glyph glyph-name="dotaccent" unicode="&#x2d9;" 
d="M68 735h124v-130h-124v130z" />
    <glyph glyph-name="ring" unicode="&#x2da;" 
d="M70 694q0 -25 17.5 -42.5t42.5 -17.5t42.5 17.5t17.5 42.5t-17.5 42.5t-42.5 17.5t-42.5 -17.5t-17.5 -42.5zM9 694q0 51 35 84t86 33t86 -33t35 -84t-35 -83t-86 -32t-86 32t-35 83z" />
    <glyph glyph-name="ogonek" unicode="&#x2db;" 
d="M213 -152l23 -45q-49 -27 -116 -27q-51 0 -79 23.5t-28 65.5q0 74 112 135h74q-92 -71 -92 -121q0 -47 50 -47q30 0 56 16z" />
    <glyph glyph-name="tilde" unicode="&#x2dc;" 
d="M212 738h80q-12 -136 -100 -136q-27 0 -67.5 15t-50.5 15q-21 0 -29 -30h-77q5 60 27 94q27 42 67 42q32 0 68 -15q43 -15 51 -15q17 0 22.5 7.5t8.5 22.5z" />
    <glyph glyph-name="hungarumlaut" unicode="&#x2dd;" 
d="M169 599l50 142h156l-100 -142h-106zM-31 599l50 142h156l-100 -142h-106z" />
    <glyph glyph-name="uni0394" unicode="&#x394;" horiz-adv-x="714" 
d="M493 140l-145 405l-135 -405h280zM703 0h-692l254 712h163z" />
    <glyph glyph-name="uni03A9" unicode="&#x3a9;" horiz-adv-x="773" 
d="M721 414q0 -90 -46.5 -163.5t-129.5 -92.5v-24h175v-134h-296v215q65 11 98.5 62.5t33.5 120.5q0 79 -45 132t-123 53t-125.5 -55t-47.5 -134q0 -68 33.5 -118t97.5 -61v-215h-296v134h175v24q-84 23 -129.5 93t-45.5 161q0 143 96.5 226t241.5 83q142 0 237.5 -84.5
t95.5 -222.5z" />
    <glyph glyph-name="uni03BC" unicode="&#x3bc;" horiz-adv-x="519" 
d="M474 541v-541h-156v64h-2q-13 -31 -37 -54.5t-50 -23.5q-15 0 -22 4v-166h-162v717h162v-369q0 -62 47 -62q25 0 41.5 19.5t16.5 57.5v354h162z" />
    <glyph glyph-name="pi" unicode="&#x3c0;" horiz-adv-x="622" 
d="M596 125v-106q-53 -28 -104 -28q-69 0 -95 36.5t-26 107.5v226h-157v-361h-144v361h-70v132h596v-132h-81v-197q0 -50 38 -50q14 0 43 11z" />
    <glyph glyph-name="endash" unicode="&#x2013;" horiz-adv-x="500" 
d="M0 227v124h500v-124h-500z" />
    <glyph glyph-name="emdash" unicode="&#x2014;" horiz-adv-x="1000" 
d="M0 227v124h1000v-124h-1000z" />
    <glyph glyph-name="quoteleft" unicode="&#x2018;" 
d="M52 365v149q0 43 5.5 73.5t21 60t48 46.5t81.5 20v-78q-33 0 -47.5 -23t-14.5 -74h62v-174h-156z" />
    <glyph glyph-name="quoteright" unicode="&#x2019;" 
d="M208 714v-149q0 -42 -5.5 -73t-21.5 -60.5t-48 -46.5t-81 -20v78q33 0 47.5 23t14.5 74h-62v174h156z" />
    <glyph glyph-name="quotesinglbase" unicode="&#x201a;" 
d="M52 6v174h156v-149q0 -42 -5.5 -73t-21.5 -60.5t-48 -46.5t-81 -20v78q33 0 47.5 23t14.5 74h-62z" />
    <glyph glyph-name="quotedblleft" unicode="&#x201c;" horiz-adv-x="481" 
d="M274 365v149q0 43 5.5 73.5t21 60t48 46.5t81.5 20v-78q-33 0 -47.5 -23t-14.5 -74h62v-174h-156zM51 365v149q0 43 5.5 73.5t21 60t48 46.5t81.5 20v-78q-33 0 -47.5 -23t-14.5 -74h62v-174h-156z" />
    <glyph glyph-name="quotedblright" unicode="&#x201d;" horiz-adv-x="481" 
d="M274 540v174h156v-149q0 -42 -5.5 -73t-21.5 -60.5t-48 -46.5t-81 -20v78q33 0 47.5 23t14.5 74h-62zM51 540v174h156v-149q0 -42 -5.5 -73t-21.5 -60.5t-48 -46.5t-81 -20v78q33 0 47.5 23t14.5 74h-62z" />
    <glyph glyph-name="quotedblbase" unicode="&#x201e;" horiz-adv-x="481" 
d="M274 6v174h156v-149q0 -42 -5.5 -73t-21.5 -60.5t-48 -46.5t-81 -20v78q33 0 47.5 23t14.5 74h-62zM51 6v174h156v-149q0 -42 -5.5 -73t-21.5 -60.5t-48 -46.5t-81 -20v78q33 0 47.5 23t14.5 74h-62z" />
    <glyph glyph-name="dagger" unicode="&#x2020;" horiz-adv-x="520" 
d="M179 -138v529h-167v130h167v193h162v-193h167v-130h-167v-529h-162z" />
    <glyph glyph-name="daggerdbl" unicode="&#x2021;" horiz-adv-x="520" 
d="M179 -138v192h-167v130h167v207h-167v130h167v193h162v-193h167v-130h-167v-207h166v-130h-166v-192h-162z" />
    <glyph glyph-name="bullet" unicode="&#x2022;" horiz-adv-x="500" 
d="M72 357q0 74 52 126t126 52t126 -52t52 -126t-52 -126t-126 -52t-126 52t-52 126z" />
    <glyph glyph-name="ellipsis" unicode="&#x2026;" horiz-adv-x="1000" 
d="M755 0v180h156v-180h-156zM422 0v180h156v-180h-156zM89 0v180h156v-180h-156z" />
    <glyph glyph-name="perthousand" unicode="&#x2030;" horiz-adv-x="1111" 
d="M435 178q0 95 34 143.5t124 48.5q52 0 85 -14t48 -43t20 -59t5 -76t-5 -76t-20 -59t-48 -43t-84 -14q-52 0 -85.5 14t-48.5 43t-20 59t-5 76zM553 178q0 -59 8.5 -84t31.5 -25q25 0 32.5 23t7.5 91q0 65 -8.5 84.5t-31.5 19.5q-45 0 -40 -109zM11 516q0 95 34 143.5
t124 48.5q52 0 85 -14t48 -43t20 -59t5 -76t-5 -76t-20 -59t-48 -43t-84 -14q-52 0 -85.5 14t-48.5 43t-20 59t-5 76zM784 178q0 95 34 143.5t124 48.5q52 0 85 -14t48 -43t20 -59t5 -76t-5 -76t-20 -59t-48 -43t-84 -14q-52 0 -85.5 14t-48.5 43t-20 59t-5 76zM129 516
q0 -59 8.5 -84t31.5 -25q25 0 32.5 23t7.5 91q0 65 -8.5 84.5t-31.5 19.5q-45 0 -40 -109zM175 -14l314 722h101l-314 -722h-101zM902 178q0 -59 8.5 -84t31.5 -25q25 0 32.5 23t7.5 91q0 65 -8.5 84.5t-31.5 19.5q-45 0 -40 -109z" />
    <glyph glyph-name="guilsinglleft" unicode="&#x2039;" 
d="M52 192v194l156 110v-150l-83 -57l83 -57v-150z" />
    <glyph glyph-name="guilsinglright" unicode="&#x203a;" 
d="M52 82v150l83 57l-83 57v150l156 -110v-194z" />
    <glyph glyph-name="fraction" unicode="&#x2044;" horiz-adv-x="167" 
d="M-166 -31l400 756h99l-400 -756h-99z" />
    <glyph glyph-name="Euro" unicode="&#x20ac;" horiz-adv-x="480" 
d="M480 639l-34 -92q-17 35 -52 59q-32 22 -80 22q-53 0 -81 -33q-35 -37 -44 -142h224l-24 -68h-204q-1 -33 0 -70h185l-24 -68h-157q0 -32 10 -75.5t34 -70.5q32 -35 83 -35q44 0 85 21q39 19 63 57v-110q-20 -17 -46 -28q-43 -20 -104 -20q-95 0 -150 43q-79 62 -89 218
h-75l24 68h47q-1 37 0 70h-71l24 68h51q10 148 89 212q54 43 147 43q60 0 104 -19q38 -17 65 -50z" />
    <glyph glyph-name="afii61289" unicode="&#x2113;" horiz-adv-x="500" 
d="M462 55q-82 -69 -178 -69q-80 0 -125 42.5t-45 107.5v30l-54 -46h-2l-53 81l108 86v235q0 85 53 142t135 57q72 0 114.5 -42t42.5 -111q0 -76 -47.5 -149t-147.5 -155v-104q0 -33 17 -49t42 -16q39 0 88 37h2zM336 559q0 26 -10 44.5t-26 18.5t-26.5 -20.5t-10.5 -51.5
v-161q73 76 73 170z" />
    <glyph glyph-name="trademark" unicode="&#x2122;" horiz-adv-x="990" 
d="M134 302v312h-104v100h338v-100h-104v-312h-130zM836 302v282h-2l-93 -282h-98l-93 282h-2v-282h-112v412h174l81 -250h2l81 250h174v-412h-112z" />
    <glyph glyph-name="Omega" unicode="&#x2126;" horiz-adv-x="773" 
d="M721 414q0 -90 -46.5 -163.5t-129.5 -92.5v-24h175v-134h-296v215q65 11 98.5 62.5t33.5 120.5q0 79 -45 132t-123 53t-125.5 -55t-47.5 -134q0 -68 33.5 -118t97.5 -61v-215h-296v134h175v24q-84 23 -129.5 93t-45.5 161q0 143 96.5 226t241.5 83q142 0 237.5 -84.5
t95.5 -222.5z" />
    <glyph glyph-name="estimated" unicode="&#x212e;" horiz-adv-x="600" 
d="M561 259h-404v-181q59 -59 145 -59q122 0 193 120l35 -21q-46 -72 -98 -103.5t-130 -31.5q-115 0 -186.5 79t-71.5 197q0 119 71 197.5t187 78.5q115 0 186.5 -77t72.5 -199zM157 295h291v145q-63 60 -147 60t-144 -60v-145z" />
    <glyph glyph-name="partialdiff" unicode="&#x2202;" horiz-adv-x="584" 
d="M392 293q-48 48 -101 48q-51 0 -78.5 -37t-27.5 -90q0 -49 24.5 -84.5t71.5 -35.5q111 0 111 199zM540 359q0 -72 -11 -132.5t-38 -117.5t-81 -90t-130 -33q-105 0 -171 65t-66 170q0 97 63 162.5t160 65.5q67 0 128 -44q0 35 -5.5 67t-18.5 65t-39.5 52.5t-63.5 19.5
q-60 0 -120 -55l-79 88q47 41 92 60t103 19q61 0 109 -20.5t79 -55t51.5 -82t29 -98t8.5 -106.5z" />
    <glyph glyph-name="Delta" unicode="&#x2206;" horiz-adv-x="714" 
d="M493 140l-145 405l-135 -405h280zM703 0h-692l254 712h163z" />
    <glyph glyph-name="product" unicode="&#x220f;" horiz-adv-x="755" 
d="M704 -214h-147v857h-359v-857h-147v1000h653v-1000z" />
    <glyph glyph-name="summation" unicode="&#x2211;" horiz-adv-x="691" 
d="M663 -214h-634v125l290 382l-279 367v126h611v-144h-415l256 -349l-272 -363h443v-144z" />
    <glyph glyph-name="minus" unicode="&#x2212;" horiz-adv-x="600" 
d="M47 188v130h506v-130h-506z" />
    <glyph glyph-name="uni2215" unicode="&#x2215;" horiz-adv-x="167" 
d="M-166 -31l400 756h99l-400 -756h-99z" />
    <glyph glyph-name="uni2219" unicode="&#x2219;" 
d="M27 273q0 43 30 73t73 30t73 -30t30 -73t-30 -73t-73 -30t-73 30t-30 73z" />
    <glyph glyph-name="radical" unicode="&#x221a;" horiz-adv-x="595" 
d="M602 786l-223 -1000h-132l-144 293l-57 -26l-53 114l187 86l110 -241l157 774h155z" />
    <glyph glyph-name="infinity" unicode="&#x221e;" horiz-adv-x="873" 
d="M361 268q-64 83 -120 83q-34 0 -54 -23.5t-20 -57.5q0 -36 20.5 -58t55.5 -22q57 0 118 78zM705 271q0 36 -21 58t-56 22q-53 0 -117 -83q19 -24 33 -38.5t38 -27.5t49 -13q34 0 54 24t20 58zM828 273q0 -92 -52.5 -152t-143.5 -60q-105 0 -195 117q-45 -56 -88.5 -86
t-103.5 -30q-91 0 -145.5 59t-54.5 151t52 149.5t143 57.5q62 0 107 -32t90 -92q43 61 87.5 92.5t108.5 31.5q91 0 143 -57.5t52 -148.5z" />
    <glyph glyph-name="integral" unicode="&#x222b;" horiz-adv-x="649" 
d="M549 691q0 -30 -19 -49.5t-49 -19.5q-27 0 -42 15.5t-17.5 34t-8 34t-17.5 15.5q-19 0 -19 -40q0 -31 4 -92t4 -92v-333q0 -10 0.5 -45t0 -50.5t-2 -49t-4.5 -51.5t-9.5 -46.5t-15.5 -44.5t-23.5 -36t-32.5 -30t-43.5 -17.5t-55.5 -7.5q-50 0 -91 26t-41 74q0 29 19 45.5
t49 16.5q28 0 42.5 -15.5t16.5 -34t6.5 -34t16.5 -15.5q20 0 20 40q0 27 -4 80.5t-4 79.5v421q0 39 0.5 61t4 60t10.5 61t20.5 51t33 44t50 27t69.5 11q49 0 90.5 -24.5t41.5 -69.5z" />
    <glyph glyph-name="approxequal" unicode="&#x2248;" horiz-adv-x="593" 
d="M480 251h96q-3 -49 -18 -93.5t-51 -79t-86 -34.5q-41 0 -130 31t-125 31q-24 0 -38 -15.5t-17 -40.5h-94q3 73 44.5 138.5t109.5 65.5q41 0 127 -30t127 -30q46 0 55 57zM480 491h96q-9 -129 -92 -184q-32 -21 -66 -21q-39 0 -127 30.5t-124 30.5q-22 0 -37.5 -16.5
t-17.5 -39.5h-95q3 80 46 141t119 61q39 0 122.5 -28.5t120.5 -28.5q49 0 55 55z" />
    <glyph glyph-name="notequal" unicode="&#x2260;" horiz-adv-x="593" 
d="M566 77h-285l-79 -160l-128 63l48 97h-96v147h168l47 93h-215v146h287l79 160l128 -63l-48 -97h94v-146h-166l-46 -93h212v-147z" />
    <glyph glyph-name="lessequal" unicode="&#x2264;" horiz-adv-x="593" 
d="M566 -49h-540v146h540v-146zM566 123l-540 165v145l540 155v-150l-337 -77l337 -88v-150z" />
    <glyph glyph-name="greaterequal" unicode="&#x2265;" horiz-adv-x="593" 
d="M566 -49h-540v146h540v-146zM566 288l-540 -165v150l337 88l-337 77v150l540 -155v-145z" />
    <glyph glyph-name="lozenge" unicode="&#x25ca;" horiz-adv-x="593" 
d="M403 356l-107 243l-108 -243l108 -244zM554 356l-192 -391h-133l-190 391l191 391h132z" />
    <glyph glyph-name="commaaccent" unicode="&#xf004;" 
d="M64 -154v104h134v-76q-3 -54 -31 -75t-86 -23v40q25 4 33.5 10.5t10.5 19.5h-61z" />
    <glyph glyph-name="commaaccent" unicode="&#xf6c3;" 
d="M64 -154v104h134v-76q-3 -54 -31 -75t-86 -23v40q25 4 33.5 10.5t10.5 19.5h-61z" />
    <glyph glyph-name="dotlessj" unicode="&#xf6be;" 
d="M49 6v535h162v-554q0 -89 -33 -126t-132 -37q-15 0 -69 2v111q5 -1 13 -1h10q33 2 41 16t8 54z" />
    <glyph glyph-name="dotlessj" unicode="&#xfb0f;" 
d="M49 6v535h162v-554q0 -89 -33 -126t-132 -37q-15 0 -69 2v111q5 -1 13 -1h10q33 2 41 16t8 54z" />
    <glyph glyph-name="uniF8FF" unicode="&#xf8ff;" horiz-adv-x="512" 
d="M222 117h56v67h-56v-67zM225 234h46q0 52 6 72q6 19 43 52q37 34 50 60t13 60q0 59 -35 95t-89 36q-56 0 -92 -34t-43 -103l50 -8q11 95 82 95q31 0 53.5 -24.5t22.5 -60.5q0 -20 -9.5 -37t-40.5 -46q-31 -31 -46 -59q-13 -25 -13 -81zM462 50h-412v617h412v-617z
M512 718h-512v-718h512v718z" />
    <glyph glyph-name="caron.alt" 
d="M69 572l26 142h131l-59 -142h-98z" />
    <glyph glyph-name="commaaccent.alt" 
d="M196 714v-104h-134v76q3 54 31 75t86 23v-40q-25 -4 -33.5 -10.5t-10.5 -19.5h61z" />
    <glyph glyph-name="grave.cap" 
d="M85 759l-100 142h156l50 -142h-106z" />
    <glyph glyph-name="acute.cap" 
d="M69 759l50 142h156l-100 -142h-106z" />
    <glyph glyph-name="circumflex.cap" 
d="M-25 759l71 142h168l71 -142h-118l-37 81l-36 -81h-119z" />
    <glyph glyph-name="caron.cap" 
d="M46 759l-71 142h119l36 -81l37 81h118l-71 -142h-168z" />
    <glyph glyph-name="tilde.cap" 
d="M212 898h80q-12 -136 -100 -136q-27 0 -67.5 15t-50.5 15q-21 0 -29 -30h-77q5 60 27 94q27 42 67 42q32 0 68 -15q43 -15 51 -15q17 0 22.5 7.5t8.5 22.5z" />
    <glyph glyph-name="dieresis.cap" 
d="M156 765v130h124v-130h-124zM-20 765v130h124v-130h-124z" />
    <glyph glyph-name="macron.cap" 
d="M-25 786v88h310v-88h-310z" />
    <glyph glyph-name="breve.cap" 
d="M130 837q26 0 47.5 18t25.5 46h72q0 -63 -36.5 -102.5t-108.5 -39.5t-108.5 39.5t-36.5 102.5h72q4 -28 25.5 -46t47.5 -18z" />
    <glyph glyph-name="ring.cap" 
d="M70 850q0 -25 17.5 -42.5t42.5 -17.5t42.5 17.5t17.5 42.5t-17.5 42.5t-42.5 17.5t-42.5 -17.5t-17.5 -42.5zM9 850q0 51 35 84t86 33t86 -33t35 -84t-35 -83t-86 -32t-86 32t-35 83z" />
    <glyph glyph-name="hungarumlaut.cap" 
d="M169 759l50 142h156l-100 -142h-106zM-31 759l50 142h156l-100 -142h-106z" />
    <glyph glyph-name="dotaccent.cap" 
d="M68 895h124v-130h-124v130z" />
    </font>
</defs>
</svg>
